<svg width="33" height="34" viewBox="0 0 33 34" fill="none" xmlns="http://www.w3.org/2000/svg">
<path d="M18.5357 19.4687H14.4643C10.342 19.4687 7 22.7008 7 26.6875C7 27.4122 7.60775 28 8.35714 28H24.6429C25.3923 28 26 27.4122 26 26.6875C26 22.7008 22.658 19.4687 18.5357 19.4687ZM9.0777 26.0312C9.41275 23.4432 11.6991 21.4375 14.4643 21.4375H18.5357C21.2992 21.4375 23.5868 23.4452 23.9219 26.0312H9.0777ZM16.5 17.5C19.498 17.5 21.9286 15.1494 21.9286 12.25C21.9286 9.35061 19.498 7 16.5 7C13.502 7 11.0714 9.35061 11.0714 12.25C11.0714 15.1498 13.5016 17.5 16.5 17.5ZM16.5 8.96875C18.3707 8.96875 19.8929 10.4408 19.8929 12.25C19.8929 14.0592 18.3707 15.5312 16.5 15.5312C14.6293 15.5312 13.1071 14.0588 13.1071 12.25C13.1071 10.4408 14.6297 8.96875 16.5 8.96875Z" fill="#97A1AF"/>
</svg>
