<svg width="33" height="33" viewBox="0 0 33 33" fill="none" xmlns="http://www.w3.org/2000/svg">
<path d="M18.9643 18.4375H14.0357C9.04554 18.4375 5 22.4391 5 27.375C5 28.2723 5.73569 29 6.64286 29H26.3571C27.2643 29 28 28.2723 28 27.375C28 22.4391 23.9545 18.4375 18.9643 18.4375ZM7.51511 26.5625C7.92069 23.3582 10.6884 20.875 14.0357 20.875H18.9643C22.3096 20.875 25.0788 23.3607 25.4844 26.5625H7.51511ZM16.5 16C20.1292 16 23.0714 13.0897 23.0714 9.5C23.0714 5.91027 20.1292 3 16.5 3C12.8708 3 9.92857 5.91027 9.92857 9.5C9.92857 13.0902 12.8703 16 16.5 16ZM16.5 5.4375C18.7646 5.4375 20.6071 7.26004 20.6071 9.5C20.6071 11.74 18.7646 13.5625 16.5 13.5625C14.2354 13.5625 12.3929 11.7395 12.3929 9.5C12.3929 7.26004 14.2359 5.4375 16.5 5.4375Z" fill="#97A1AF"/>
</svg>
