<svg width="33" height="33" viewBox="0 0 33 33" fill="none" xmlns="http://www.w3.org/2000/svg">
<path d="M14.3707 7.06811L24.4793 7.06811L25.8513 7.13622L26.3977 7.27245L26.9441 7.47678L27.3539 7.68111L27.6954 7.95356L28.0369 8.29412L28.3785 8.70279L28.5151 8.90712L28.608 9.11146L28.7036 9.31579L28.7883 9.52012L28.9249 9.92879L28.9872 10.4056L28.9973 10.6099L29 10.8824L29 11.291L28.9872 14.7647L28.9872 21.7121L14.3707 21.7802L14.3707 7.06811Z" fill="#FFB400"/>
<path d="M14.3766 23.483L28.9658 23.5375L28.9658 25.5225L28.9249 25.7988L28.9249 25.935L28.8566 26.1393L28.72 26.6842L28.0369 27.8421L26.8758 28.6594L26.1928 28.9319L25.8513 29L21.5483 29L14.3766 28.9319L14.3766 23.483Z" fill="#FFB400"/>
<path d="M10.4834 7.06811L12.4641 7L12.4641 28.9319L10.2102 28.9319L9.39056 28.7276L8.57094 28.3189L7.95622 27.774L7.40981 27.0248L7.0683 26.1393L7 25.1858L7 11.2229L7.1366 9.79257L7.40981 9.17957L7.75132 8.49845L8.22943 7.95356L8.91245 7.54489L9.66377 7.20433L10.4834 7.06811Z" fill="#FFB400"/>
</svg>
