<svg width="33" height="33" viewBox="0 0 33 33" fill="none" xmlns="http://www.w3.org/2000/svg">
<path d="M16.5123 15.9991H6.65772C5.72863 15.9982 4.83462 15.6306 4.15688 14.971C3.47914 14.3113 3.06836 13.4089 3.00779 12.4466C2.94723 11.4842 3.2414 10.534 3.83069 9.78843C4.41999 9.04286 5.26033 8.55773 6.18141 8.43135C6.47056 7.32367 7.05966 6.32527 7.87887 5.55456C8.69808 4.78384 9.71303 4.27312 10.8034 4.08296C11.8937 3.89279 13.0137 4.03116 14.0306 4.48165C15.0475 4.93214 15.9186 5.67587 16.5407 6.62464C17.731 6.64024 18.8672 7.143 19.7023 8.02357C20.5373 8.90415 21.0037 10.0913 21 11.3269C20.9962 12.5625 20.5227 13.7466 19.6823 14.6217C18.8419 15.4968 17.7026 15.9912 16.5123 15.9991ZM6.65772 9.80313C6.04559 9.80313 5.45853 10.0555 5.0257 10.5048C4.59286 10.9541 4.34969 11.5634 4.34969 12.1988C4.34969 12.8342 4.59286 13.4436 5.0257 13.8928C5.45853 14.3421 6.04559 14.5945 6.65772 14.5945H16.5123C17.3446 14.5842 18.1395 14.2338 18.7245 13.6192C19.3096 13.0046 19.6377 12.1754 19.6377 11.3114C19.6377 10.4474 19.3096 9.61818 18.7245 9.00359C18.1395 8.38901 17.3446 8.03857 16.5123 8.02825C16.4266 8.02825 16.3364 8.03246 16.2358 8.04183C16.1079 8.05328 15.9795 8.02674 15.8656 7.96532C15.7517 7.90389 15.657 7.8101 15.5926 7.6949C15.1364 6.87806 14.4489 6.22687 13.6236 5.82987C12.7983 5.43287 11.8753 5.30933 10.9799 5.47603C10.0846 5.64273 9.26047 6.0916 8.61957 6.7616C7.97867 7.4316 7.55211 8.29022 7.39789 9.22071C7.37052 9.38707 7.28634 9.53763 7.16077 9.64484C7.0352 9.75206 6.87664 9.80874 6.7141 9.80454H6.68252L6.65772 9.80313Z" fill="#97A1AF"/>
<path d="M27.325 17.1688V11H25.4V12.8816H20.5875L17.5 14.7632L15 15.5H13L11.925 17.1688C10.7796 17.8207 10 19.0202 10 20.4079V24.1711C10 24.4206 10.1014 24.6599 10.2819 24.8363C10.4624 25.0127 10.7072 25.1118 10.9625 25.1118H11.925V28.875H13.85V25.1118H25.4V28.875H27.325V25.1118H28.2875C28.5428 25.1118 28.7876 25.0127 28.9681 24.8363C29.1486 24.6599 29.25 24.4206 29.25 24.1711V20.4079C29.25 19.0202 28.4694 17.8207 27.325 17.1688ZM25.4 14.7632V16.6447H20.5875V14.7632H25.4ZM13.85 14.7632H18.6625V16.6447H13.85V14.7632ZM27.325 23.2303H11.925V20.4079C11.925 19.3702 12.7884 18.5263 13.85 18.5263H25.4C26.4616 18.5263 27.325 19.3702 27.325 20.4079V23.2303Z" fill="#97A1AF"/>
</svg>
