<svg width="33" height="33" viewBox="0 0 33 33" fill="none" xmlns="http://www.w3.org/2000/svg">
<path d="M16.5123 12.4991H6.65772C5.72863 12.4982 4.83462 12.1306 4.15688 11.471C3.47914 10.8113 3.06836 9.9089 3.00779 8.94657C2.94723 7.98424 3.2414 7.034 3.83069 6.28843C4.41999 5.54286 5.26033 5.05773 6.18141 4.93135C6.47056 3.82367 7.05966 2.82527 7.87887 2.05456C8.69808 1.28384 9.71303 0.77312 10.8034 0.582956C11.8937 0.392793 13.0137 0.53116 14.0306 0.981652C15.0475 1.43214 15.9186 2.17587 16.5407 3.12464C17.731 3.14024 18.8672 3.643 19.7023 4.52357C20.5373 5.40415 21.0037 6.59132 21 7.82693C20.9962 9.06253 20.5227 10.2466 19.6823 11.1217C18.8419 11.9968 17.7026 12.4922 16.5123 12.5V12.4991ZM6.65772 6.30313C6.04559 6.30313 5.45853 6.55553 5.0257 7.00481C4.59286 7.45409 4.34969 8.06345 4.34969 8.69882C4.34969 9.3342 4.59286 9.94355 5.0257 10.3928C5.45853 10.8421 6.04559 11.0945 6.65772 11.0945H16.5123C17.3446 11.0842 18.1395 10.7338 18.7245 10.1192C19.3096 9.50458 19.6377 8.67539 19.6377 7.81138C19.6377 6.94737 19.3096 6.11818 18.7245 5.50359C18.1395 4.88901 17.3446 4.53857 16.5123 4.52825C16.4266 4.52825 16.3364 4.53246 16.2358 4.54183C16.1079 4.55328 15.9795 4.52674 15.8656 4.46532C15.7517 4.40389 15.657 4.3101 15.5926 4.1949C15.1364 3.37806 14.4489 2.72687 13.6236 2.32987C12.7983 1.93287 11.8753 1.80933 10.9799 1.97603C10.0846 2.14273 9.26047 2.5916 8.61957 3.2616C7.97867 3.9316 7.55211 4.79022 7.39789 5.72071C7.37052 5.88707 7.28634 6.03763 7.16077 6.14484C7.0352 6.25206 6.87664 6.30874 6.7141 6.30454H6.68252L6.65772 6.30313Z" fill="#97A1AF"/>
<path d="M29.7 19.9188V13.75H27.775V15.6316H16.225V13.75H14.3V19.9188C13.1546 20.5707 12.375 21.7702 12.375 23.1579V26.9211C12.375 27.1706 12.4764 27.4099 12.6569 27.5863C12.8374 27.7627 13.0822 27.8618 13.3375 27.8618H14.3V31.625H16.225V27.8618H27.775V31.625H29.7V27.8618H30.6625C30.9178 27.8618 31.1626 27.7627 31.3431 27.5863C31.5236 27.4099 31.625 27.1706 31.625 26.9211V23.1579C31.625 21.7702 30.8444 20.5707 29.7 19.9188ZM27.775 17.5132V19.3947H22.9625V17.5132H27.775ZM16.225 17.5132H21.0375V19.3947H16.225V17.5132ZM29.7 25.9803H14.3V23.1579C14.3 22.1202 15.1634 21.2763 16.225 21.2763H27.775C28.8366 21.2763 29.7 22.1202 29.7 23.1579V25.9803Z" fill="#97A1AF"/>
</svg>
