<svg width="33" height="33" viewBox="0 0 33 33" fill="none" xmlns="http://www.w3.org/2000/svg">
<path d="M11.9175 27.5C12.7613 27.5021 13.5972 27.337 14.3768 27.0141C15.1564 26.6912 15.8643 26.217 16.4593 25.6188L25.6227 16.4595C26.8251 15.2541 27.5002 13.6211 27.5 11.9188C27.4998 10.2165 26.8242 8.58369 25.6214 7.37859C24.4076 6.16772 22.7943 5.5 21.0796 5.5C19.3648 5.5 17.7515 6.16772 16.5403 7.37988L7.37688 16.5404C6.17492 17.746 5.5 19.3788 5.5 21.0809C5.5 22.7831 6.17492 24.4158 7.37688 25.6214C7.97205 26.2189 8.67976 26.6925 9.45911 27.0149C10.2385 27.3374 11.074 27.5022 11.9175 27.5ZM18.3565 9.19555C18.7133 8.837 19.1377 8.55275 19.6051 8.35923C20.0725 8.16571 20.5736 8.06677 21.0796 8.06814C22.1097 8.06814 23.0782 8.47005 23.8052 9.19555C24.5269 9.9185 24.9323 10.8981 24.9326 11.9194C24.9328 12.9408 24.5278 13.9206 23.8065 14.6439L20.0905 18.3574L14.6418 12.9091L18.3565 9.19555ZM9.19311 18.3561L12.8256 14.7248L18.2743 20.1731L14.6431 23.8031C13.1878 25.258 10.6484 25.2567 9.19311 23.8044C8.47189 23.0811 8.0669 22.1015 8.0669 21.0803C8.0669 20.059 8.47189 19.0794 9.19311 18.3561Z" fill="#97A1AF"/>
</svg>
