<svg width="33" height="33" viewBox="0 0 33 33" fill="none" xmlns="http://www.w3.org/2000/svg">
<path d="M23.9654 5.35248H21.0724C20.8847 4.82159 20.5374 4.36175 20.078 4.036C19.6187 3.71025 19.0699 3.53454 18.5068 3.53296H14.8678C14.3047 3.53454 13.7559 3.71025 13.2966 4.036C12.8373 4.36175 12.49 4.82159 12.3023 5.35248H9.40922C8.68536 5.35248 7.99116 5.64003 7.47932 6.15187C6.96748 6.66371 6.67993 7.35791 6.67993 8.08177V26.277C6.67993 27.0008 6.96748 27.6951 7.47932 28.2069C7.99116 28.7187 8.68536 29.0063 9.40922 29.0063H23.9654C24.6893 29.0063 25.3835 28.7187 25.8953 28.2069C26.4071 27.6951 26.6947 27.0008 26.6947 26.277V8.08177C26.6947 7.35791 26.4071 6.66371 25.8953 6.15187C25.3835 5.64003 24.6893 5.35248 23.9654 5.35248ZM13.958 6.26224C13.958 6.02096 14.0539 5.78956 14.2245 5.61894C14.3951 5.44833 14.6265 5.35248 14.8678 5.35248H18.5068C18.7481 5.35248 18.9795 5.44833 19.1501 5.61894C19.3207 5.78956 19.4166 6.02096 19.4166 6.26224V7.172H13.958V6.26224ZM24.8752 26.277C24.8752 26.5183 24.7793 26.7497 24.6087 26.9203C24.4381 27.0909 24.2067 27.1868 23.9654 27.1868H9.40922C9.16793 27.1868 8.93653 27.0909 8.76592 26.9203C8.5953 26.7497 8.49945 26.5183 8.49945 26.277V8.08177C8.49945 7.84048 8.5953 7.60908 8.76592 7.43847C8.93653 7.26785 9.16793 7.172 9.40922 7.172H12.1385V8.99153H21.2361V7.172H23.9654C24.2067 7.172 24.4381 7.26785 24.6087 7.43847C24.7793 7.60908 24.8752 7.84048 24.8752 8.08177V26.277Z" fill="#97A1AF"/>
<path d="M21.236 16.2697H12.1384V18.0892H21.236V16.2697Z" fill="#97A1AF"/>
<path d="M16.6872 19.9087H12.1384V21.7282H16.6872V19.9087Z" fill="#97A1AF"/>
</svg>
