<svg width="34" height="34" viewBox="0 0 34 34" fill="none" xmlns="http://www.w3.org/2000/svg">
<path d="M23.5455 7.63636H20.9436C20.7748 7.15891 20.4625 6.74536 20.0494 6.4524C19.6363 6.15945 19.1428 6.00142 18.6364 6H15.3636C14.8572 6.00142 14.3637 6.15945 13.9506 6.4524C13.5375 6.74536 13.2252 7.15891 13.0564 7.63636H10.4545C9.80356 7.63636 9.17924 7.89497 8.71892 8.35528C8.2586 8.8156 8 9.43992 8 10.0909V26.4545C8 27.1055 8.2586 27.7299 8.71892 28.1902C9.17924 28.6505 9.80356 28.9091 10.4545 28.9091H23.5455C24.1964 28.9091 24.8208 28.6505 25.2811 28.1902C25.7414 27.7299 26 27.1055 26 26.4545V10.0909C26 9.43992 25.7414 8.8156 25.2811 8.35528C24.8208 7.89497 24.1964 7.63636 23.5455 7.63636ZM14.5455 8.45455C14.5455 8.23755 14.6317 8.02944 14.7851 7.876C14.9385 7.72256 15.1466 7.63636 15.3636 7.63636H18.6364C18.8534 7.63636 19.0615 7.72256 19.2149 7.876C19.3683 8.02944 19.4545 8.23755 19.4545 8.45455V9.27273H14.5455V8.45455ZM24.3636 26.4545C24.3636 26.6715 24.2774 26.8796 24.124 27.0331C23.9706 27.1865 23.7624 27.2727 23.5455 27.2727H10.4545C10.2376 27.2727 10.0294 27.1865 9.876 27.0331C9.72256 26.8796 9.63636 26.6715 9.63636 26.4545V10.0909C9.63636 9.87391 9.72256 9.66581 9.876 9.51237C10.0294 9.35893 10.2376 9.27273 10.4545 9.27273H12.9091V10.9091H21.0909V9.27273H23.5455C23.7624 9.27273 23.9706 9.35893 24.124 9.51237C24.2774 9.66581 24.3636 9.87391 24.3636 10.0909V26.4545Z" fill="#97A1AF"/>
<path d="M21.0908 17.4546H12.9089V19.0909H21.0908V17.4546Z" fill="#97A1AF"/>
<path d="M16.9998 20.7273H12.9089V22.3636H16.9998V20.7273Z" fill="#97A1AF"/>
</svg>

