<svg width="80" height="37" viewBox="0 0 80 37" fill="none" xmlns="http://www.w3.org/2000/svg">
<path d="M35.775 18.5C39.9792 18.5 43.4 15.0418 43.4 10.7917C43.4 6.54148 39.9792 3.08333 35.775 3.08333C31.5708 3.08333 28.15 6.54148 28.15 10.7917C28.15 15.0418 31.5708 18.5 35.775 18.5ZM69.325 6.16667H47.975C47.1324 6.16667 46.45 6.85656 46.45 7.70833V21.5833H25.1V1.54167C25.1 0.689896 24.4176 0 23.575 0H20.525C19.6824 0 19 0.689896 19 1.54167V35.4583C19 36.3101 19.6824 37 20.525 37H23.575C24.4176 37 25.1 36.3101 25.1 35.4583V30.8333H73.9V35.4583C73.9 36.3101 74.5824 37 75.425 37H78.475C79.3176 37 80 36.3101 80 35.4583V16.9583C80 10.9979 75.221 6.16667 69.325 6.16667Z" fill="#333333"/>
<path d="M8 18C8 20.2091 6.20914 22 4 22C1.79086 22 0 20.2091 0 18C0 15.7909 1.79086 14 4 14C6.20914 14 8 15.7909 8 18Z" fill="#2FC42C"/>
</svg>
