<svg width="19" height="27" viewBox="0 0 19 27" fill="none" xmlns="http://www.w3.org/2000/svg">
<path d="M9.49992 19.3181C11.6312 17.5959 13.2404 15.9382 14.3275 14.3452C15.4147 12.7521 15.9583 11.2559 15.9583 9.85663C15.9583 7.91913 15.3555 6.32608 14.1499 5.07747C12.9444 3.82885 11.3944 3.20455 9.49992 3.20455C7.60547 3.20455 6.05547 3.82885 4.84992 5.07747C3.64436 6.32608 3.04159 7.91913 3.04159 9.85663C3.04159 11.2559 3.58516 12.7521 4.67231 14.3452C5.75947 15.9382 7.36867 17.5959 9.49992 19.3181ZM9.49992 22.5795C6.4645 20.3407 4.1987 18.1664 2.70252 16.0566C1.20634 13.9469 0.458252 11.8802 0.458252 9.85663C0.458252 7.16566 1.29784 4.95368 2.977 3.2207C4.65617 1.48771 6.83047 0.621216 9.49992 0.621216C12.1694 0.621216 14.3437 1.48771 16.0228 3.2207C17.702 4.95368 18.5416 7.16566 18.5416 9.85663C18.5416 11.8802 17.7935 13.9469 16.2973 16.0566C14.8011 18.1664 12.5353 20.3407 9.49992 22.5795ZM9.49992 12.2462C10.2103 12.2462 10.8185 11.9933 11.3244 11.4874C11.8303 10.9815 12.0833 10.3733 12.0833 9.66288C12.0833 8.95247 11.8303 8.34431 11.3244 7.8384C10.8185 7.3325 10.2103 7.07955 9.49992 7.07955C8.7895 7.07955 8.18134 7.3325 7.67544 7.8384C7.16954 8.34431 6.91658 8.95247 6.91658 9.66288C6.91658 10.3733 7.16954 10.9815 7.67544 11.4874C8.18134 11.9933 8.7895 12.2462 9.49992 12.2462ZM0.458252 26.4545V23.8712H18.5416V26.4545H0.458252Z" fill="#1C1B1F"/>
</svg>
