<svg width="490" height="390" viewBox="0 0 490 390" fill="none" xmlns="http://www.w3.org/2000/svg">
<path fill-rule="evenodd" clip-rule="evenodd" d="M240.869 104.217C284.928 98.1647 331.149 114.915 359.416 149.248C388.149 184.146 394.025 232.408 382.372 276.084C371.236 317.822 339.576 349.202 300.922 368.489C261.464 388.178 215.833 397.378 175.64 379.237C134.35 360.602 101.377 321.679 97.2549 276.566C93.5477 235.994 131.083 208.332 157.164 177.033C182.071 147.143 202.323 109.513 240.869 104.217Z" stroke="#99180C" stroke-width="2"/>
<path fill-rule="evenodd" clip-rule="evenodd" d="M144.349 1.04331C214.619 -0.530697 280.019 40.9124 302.595 107.417C326.063 176.55 305.181 255.822 244.779 296.897C188.932 334.874 117.022 311.157 63.4479 270.041C14.8808 232.767 -11.0931 172.648 6.53059 114.049C25.4383 51.1804 78.6616 2.51464 144.349 1.04331Z" stroke="#FFBA14" stroke-width="2"/>
<path fill-rule="evenodd" clip-rule="evenodd" d="M356.27 5.20325C428.523 4.39201 445.013 20.8084 475.5 75C509.5 163.5 471.594 221.373 420.5 257.983C370.94 293.495 312.097 333.908 260.74 301.046C202.299 263.651 184.932 186.896 206.246 120.889C227.695 54.4657 286.447 5.98721 356.27 5.20325Z" stroke="#EAB2B2" stroke-width="3"/>
<path d="M192.216 148.387C197.666 174.442 214.799 210.797 250.017 233.915C284.137 258.07 324.805 259.306 348.975 247.663C374.141 236.36 382.811 212.181 375.957 193.376C369.051 173.707 353.062 160.344 337.875 151.737C322.081 143.004 307.091 139.026 288.152 135.195C269.715 131.483 250.24 125.657 234.827 117.558C219.187 110.071 207.609 100.31 199.762 102.869C192.649 104.968 186.591 121.528 192.216 148.387Z" fill="#E7F0FE"/>
<path d="M230.742 185.08C226.985 158.729 212.233 121.347 178.578 96.0135C146.086 69.7142 105.582 65.8667 80.712 75.9313C54.868 85.5922 44.6576 109.164 50.284 128.37C55.9075 148.443 71.0022 162.805 85.6012 172.37C100.799 182.101 115.501 187.034 134.154 192.075C152.313 196.965 171.372 204.031 186.232 213.104C201.356 221.581 212.281 232.066 220.277 230.017C227.509 228.38 234.623 212.244 230.742 185.08Z" fill="#E7F0FE"/>
<path d="M238.83 238.863H190.184V263.947H238.83V238.863Z" fill="#FFBA14"/>
<g opacity="0.3">
<path d="M238.83 255.142L190.184 249.738V238.863H238.83V255.142Z" fill="#776436"/>
</g>
<path d="M308.458 259.545H119.219C115.234 259.545 112.003 262.771 112.003 266.75H315.676C315.675 262.77 312.444 259.545 308.458 259.545Z" fill="#EED7A1"/>
<path d="M357.726 72.3034V232.625C357.726 239.16 352.41 244.467 345.864 244.467H91.4664C85.9253 244.467 81.2687 240.66 79.9681 235.52C79.7316 234.591 79.6099 233.623 79.6099 232.625V72.3034C79.6099 65.7619 84.9251 60.461 91.4654 60.461H345.863C352.41 60.461 357.726 65.7619 357.726 72.3034Z" fill="#FFBA14"/>
<path d="M341.352 67.2015H95.9825C90.6683 67.2015 86.3601 71.5027 86.3601 76.8084V228.116C86.3601 233.422 90.6683 237.723 95.9825 237.723H341.352C346.666 237.723 350.974 233.422 350.974 228.116V76.8084C350.974 71.5027 346.666 67.2015 341.352 67.2015Z" fill="#E7F0FE"/>
<path d="M341.352 67.2015H95.9825C90.6683 67.2015 86.3601 71.5027 86.3601 76.8084V228.116C86.3601 233.422 90.6683 237.723 95.9825 237.723H341.352C346.666 237.723 350.974 233.422 350.974 228.116V76.8084C350.974 71.5027 346.666 67.2015 341.352 67.2015Z" fill="#E7F0FE"/>
<path d="M341.352 72.9698H233.543V231.954H341.352C343.472 231.954 345.197 230.232 345.197 228.117V76.8084C345.197 74.6916 343.471 72.9698 341.352 72.9698Z" fill="white"/>
<path d="M84.5422 267.539H352.794C353.527 267.539 354.122 266.945 354.122 266.213C354.122 265.481 353.527 264.887 352.794 264.887H84.5422C83.8089 264.887 83.2141 265.481 83.2141 266.213C83.2141 266.946 83.808 267.539 84.5422 267.539Z" fill="#E3CB91"/>
<path d="M257.426 101.48C253.674 101.48 250.634 104.515 250.634 108.261C250.634 112.006 253.675 115.041 257.426 115.041C261.177 115.041 264.217 112.006 264.217 108.261C264.217 104.516 261.177 101.48 257.426 101.48ZM257.426 113.927C254.291 113.927 251.744 111.392 251.744 108.262C251.744 105.131 254.291 102.596 257.426 102.596C260.561 102.596 263.1 105.131 263.1 108.262C263.1 111.392 260.561 113.927 257.426 113.927Z" fill="#FDD77B"/>
<path d="M289.978 103.054H272.107C271.668 103.054 271.26 103.354 271.19 103.787C271.099 104.339 271.524 104.816 272.06 104.816H289.978C290.466 104.816 290.861 104.421 290.861 103.935C290.861 103.449 290.465 103.054 289.978 103.054ZM324.107 103.054H292.942C292.455 103.054 292.06 103.449 292.06 103.935C292.06 104.422 292.456 104.816 292.942 104.816H324.154C324.69 104.816 325.115 104.339 325.024 103.787C324.954 103.354 324.546 103.054 324.107 103.054ZM297.681 107.38H272.108C271.669 107.38 271.261 107.679 271.191 108.113C271.1 108.664 271.525 109.142 272.061 109.142H297.682C298.17 109.142 298.565 108.747 298.565 108.261C298.564 107.774 298.168 107.38 297.681 107.38ZM297.681 111.706H272.108C271.669 111.706 271.261 112.006 271.191 112.439C271.1 112.991 271.525 113.469 272.061 113.469H297.682C298.17 113.469 298.565 113.074 298.565 112.588C298.564 112.1 298.168 111.706 297.681 111.706ZM324.107 107.38H300.645C300.158 107.38 299.762 107.774 299.762 108.261C299.762 108.748 300.158 109.142 300.645 109.142H324.153C324.689 109.142 325.114 108.664 325.023 108.113C324.954 107.68 324.546 107.38 324.107 107.38Z" fill="#FDD77B"/>
<path d="M257.328 111.644C257.218 111.644 257.108 111.634 256.999 111.611C256.571 111.523 256.197 111.267 255.96 110.901L253.557 107.185C253.069 106.432 253.286 105.425 254.041 104.938C254.797 104.449 255.804 104.668 256.293 105.421L257.798 107.749L265.571 102.554C266.318 102.052 267.329 102.253 267.83 103.001C268.33 103.746 268.13 104.755 267.382 105.255L258.234 111.369C257.964 111.55 257.648 111.644 257.328 111.644Z" fill="#FDD77B"/>
<path d="M311.453 131.211C311.453 134.957 314.493 137.992 318.244 137.992C321.996 137.992 325.036 134.957 325.036 131.211C325.036 127.466 321.996 124.431 318.244 124.431C314.493 124.431 311.453 127.466 311.453 131.211ZM312.57 131.211C312.57 128.081 315.109 125.546 318.244 125.546C321.38 125.546 323.926 128.081 323.926 131.211C323.926 134.341 321.38 136.877 318.244 136.877C315.109 136.877 312.57 134.341 312.57 131.211Z" fill="#FDD77B"/>
<path d="M285.692 126.004H303.563C304.003 126.004 304.41 126.304 304.481 126.737C304.571 127.289 304.146 127.766 303.61 127.766H285.692C285.204 127.766 284.81 127.372 284.81 126.885C284.81 126.398 285.205 126.004 285.692 126.004ZM251.564 126.004H282.728C283.216 126.004 283.61 126.399 283.61 126.885C283.61 127.373 283.215 127.766 282.728 127.766H251.517C250.981 127.766 250.556 127.289 250.646 126.737C250.717 126.304 251.124 126.004 251.564 126.004ZM277.989 130.33H303.562C304.002 130.33 304.409 130.63 304.48 131.063C304.57 131.615 304.145 132.092 303.609 132.092H277.988C277.5 132.092 277.105 131.697 277.105 131.211C277.106 130.725 277.502 130.33 277.989 130.33ZM277.989 134.656H303.562C304.002 134.656 304.409 134.956 304.48 135.389C304.57 135.941 304.145 136.419 303.609 136.419H277.988C277.5 136.419 277.105 136.024 277.105 135.538C277.106 135.051 277.502 134.656 277.989 134.656ZM251.565 130.33H275.025C275.512 130.33 275.908 130.725 275.908 131.211C275.908 131.698 275.512 132.092 275.025 132.092H251.517C250.981 132.092 250.556 131.615 250.646 131.063C250.717 130.63 251.125 130.33 251.565 130.33Z" fill="#FDD77B"/>
<path d="M319.001 133.796C318.891 133.796 318.781 133.786 318.672 133.763C318.244 133.675 317.87 133.419 317.634 133.053L315.23 129.337C314.742 128.584 314.959 127.577 315.715 127.09C316.471 126.601 317.478 126.82 317.966 127.573L319.471 129.901L327.244 124.706C327.991 124.204 329.002 124.405 329.503 125.153C330.004 125.898 329.803 126.907 329.055 127.407L319.907 133.521C319.637 133.702 319.321 133.796 319.001 133.796Z" fill="#FDD77B"/>
<path d="M305.622 214.736C305.622 214.736 301.492 225.494 298.018 231.7C304.085 231.7 308.688 231.7 308.688 231.7V217.97L305.622 214.736Z" fill="#FECECC"/>
<path d="M318.545 199.07C318.545 199.07 308.806 205.843 304.57 214.642C304.57 214.642 310.39 225.923 313.864 224.107C318.936 221.454 318.545 199.07 318.545 199.07Z" fill="#A0C5FF"/>
<path d="M337.525 231.7C337.358 217.445 333.087 198.812 321.646 198.551C312.498 198.343 306.694 216.817 305.621 231.7H337.525Z" fill="#5D74E4"/>
<path d="M314.198 207.654C314.155 207.654 314.113 207.633 314.088 207.592C314.051 207.532 314.071 207.453 314.132 207.416C314.74 207.047 314.586 206.44 314.579 206.414C314.56 206.346 314.602 206.275 314.669 206.257C314.737 206.238 314.808 206.278 314.827 206.346C314.905 206.626 314.887 207.257 314.266 207.635C314.244 207.648 314.221 207.654 314.198 207.654ZM317.301 213.594C317.258 213.594 317.216 213.572 317.191 213.532C317.154 213.471 317.173 213.392 317.234 213.356C317.843 212.986 317.689 212.38 317.682 212.354C317.663 212.286 317.704 212.215 317.772 212.196C317.84 212.178 317.911 212.218 317.93 212.286C318.008 212.566 317.99 213.196 317.369 213.574C317.347 213.588 317.325 213.594 317.301 213.594ZM323.714 208.569C323.671 208.569 323.628 208.548 323.604 208.508C323.566 208.447 323.586 208.368 323.647 208.331C324.256 207.962 324.101 207.355 324.095 207.33C324.076 207.261 324.117 207.191 324.185 207.172C324.253 207.153 324.323 207.193 324.343 207.261C324.42 207.541 324.403 208.172 323.781 208.55C323.76 208.564 323.736 208.569 323.714 208.569ZM314.772 217.015C314.772 217.058 314.75 217.1 314.71 217.125C314.649 217.162 314.569 217.142 314.533 217.082C314.163 216.474 313.555 216.628 313.53 216.635C313.461 216.653 313.39 216.612 313.372 216.545C313.352 216.477 313.393 216.406 313.461 216.387C313.742 216.309 314.373 216.327 314.752 216.947C314.766 216.969 314.772 216.993 314.772 217.015ZM308.816 222.5C308.773 222.5 308.731 222.479 308.706 222.438C308.669 222.378 308.689 222.298 308.75 222.262C309.358 221.893 309.204 221.286 309.197 221.26C309.178 221.192 309.22 221.121 309.287 221.103C309.355 221.084 309.426 221.124 309.445 221.192C309.523 221.472 309.505 222.102 308.884 222.481C308.862 222.494 308.839 222.5 308.816 222.5ZM313.427 210.316C313.423 210.273 313.441 210.229 313.478 210.2C313.535 210.158 313.615 210.169 313.657 210.226C314.083 210.795 314.673 210.584 314.698 210.575C314.765 210.551 314.838 210.584 314.864 210.651C314.889 210.717 314.856 210.791 314.789 210.817C314.516 210.92 313.887 210.963 313.45 210.38C313.438 210.361 313.43 210.338 313.427 210.316ZM320.762 205.782C320.758 205.739 320.776 205.695 320.813 205.667C320.87 205.625 320.951 205.636 320.994 205.693C321.42 206.262 322.01 206.052 322.034 206.043C322.101 206.018 322.175 206.052 322.2 206.118C322.226 206.184 322.192 206.259 322.126 206.284C321.854 206.388 321.223 206.43 320.787 205.848C320.773 205.827 320.765 205.805 320.762 205.782ZM316.242 222.071C316.238 222.028 316.256 221.984 316.293 221.955C316.35 221.913 316.43 221.925 316.473 221.982C316.899 222.551 317.489 222.34 317.513 222.332C317.58 222.307 317.653 222.34 317.679 222.407C317.704 222.473 317.671 222.547 317.604 222.573C317.331 222.677 316.701 222.719 316.265 222.137C316.253 222.116 316.244 222.093 316.242 222.071ZM322.534 212.682C322.53 212.638 322.548 212.594 322.585 212.566C322.642 212.524 322.722 212.535 322.765 212.591C323.192 213.161 323.781 212.95 323.806 212.941C323.873 212.917 323.946 212.95 323.972 213.017C323.997 213.082 323.964 213.157 323.897 213.182C323.624 213.286 322.995 213.328 322.558 212.746C322.544 212.727 322.536 212.704 322.534 212.682ZM308.296 217.571C308.292 217.528 308.31 217.483 308.347 217.455C308.404 217.413 308.485 217.425 308.527 217.482C308.953 218.051 309.543 217.84 309.567 217.831C309.634 217.807 309.708 217.84 309.733 217.907C309.759 217.973 309.725 218.047 309.658 218.072C309.386 218.176 308.756 218.219 308.32 217.636C308.307 217.616 308.298 217.593 308.296 217.571ZM319.454 209.218C319.218 209.218 319.057 209.079 318.851 208.9C318.757 208.818 318.651 208.726 318.517 208.628C318.215 208.408 318.173 208.446 317.969 208.629C317.857 208.73 317.703 208.867 317.464 208.99C317.243 209.103 317.036 209.121 316.847 209.046C316.51 208.91 316.371 208.522 316.367 208.506C316.343 208.439 316.379 208.366 316.446 208.342C316.513 208.319 316.586 208.354 316.61 208.42C316.611 208.423 316.717 208.716 316.945 208.808C317.064 208.855 317.195 208.84 317.348 208.762C317.557 208.655 317.691 208.535 317.798 208.439C318.047 208.216 318.223 208.095 318.67 208.421C318.813 208.525 318.924 208.621 319.021 208.706C319.326 208.97 319.418 209.051 319.809 208.849C319.872 208.816 319.949 208.841 319.983 208.904C320.015 208.966 319.991 209.044 319.928 209.077C319.733 209.177 319.582 209.218 319.454 209.218ZM321.784 221.598C321.548 221.598 321.387 221.458 321.181 221.279C321.087 221.198 320.981 221.106 320.848 221.008C320.545 220.787 320.503 220.825 320.299 221.009C320.187 221.109 320.033 221.247 319.794 221.369C319.573 221.482 319.366 221.501 319.177 221.424C318.84 221.289 318.702 220.901 318.697 220.884C318.673 220.817 318.709 220.744 318.776 220.72C318.843 220.697 318.917 220.732 318.94 220.799C318.941 220.802 319.047 221.095 319.275 221.186C319.394 221.233 319.525 221.218 319.678 221.14C319.888 221.033 320.021 220.914 320.128 220.817C320.377 220.594 320.553 220.473 321.001 220.8C321.143 220.904 321.254 221 321.351 221.084C321.656 221.349 321.749 221.429 322.139 221.227C322.202 221.195 322.28 221.219 322.313 221.282C322.345 221.345 322.321 221.422 322.258 221.455C322.064 221.555 321.913 221.598 321.784 221.598ZM310.348 214.736C310.337 214.736 310.326 214.735 310.315 214.732C309.974 214.643 309.824 214.432 309.76 214.27C309.638 213.966 309.72 213.612 309.856 213.394C310.095 213.01 310.182 212.692 309.826 212.392C309.646 212.24 309.619 212.082 309.629 211.976C309.659 211.647 310.065 211.407 310.111 211.381C310.173 211.346 310.251 211.367 310.287 211.429C310.322 211.491 310.3 211.569 310.239 211.604C310.152 211.654 309.901 211.833 309.885 211.999C309.883 212.024 309.876 212.098 309.992 212.195C310.591 212.701 310.216 213.303 310.075 213.529C309.977 213.686 309.911 213.955 309.999 214.174C310.061 214.329 310.19 214.433 310.38 214.482C310.449 214.499 310.49 214.57 310.472 214.639C310.457 214.697 310.404 214.736 310.348 214.736ZM312.981 230.308C312.97 230.308 312.96 230.307 312.949 230.304C312.607 230.216 312.458 230.004 312.393 229.842C312.271 229.538 312.354 229.184 312.489 228.966C312.729 228.582 312.815 228.264 312.46 227.965C312.279 227.812 312.253 227.654 312.263 227.548C312.293 227.219 312.698 226.98 312.745 226.953C312.806 226.918 312.885 226.94 312.92 227.001C312.956 227.063 312.934 227.141 312.872 227.177C312.786 227.227 312.535 227.405 312.52 227.572C312.518 227.596 312.511 227.671 312.627 227.768C313.226 228.273 312.851 228.875 312.709 229.101C312.611 229.258 312.545 229.528 312.634 229.746C312.695 229.901 312.824 230.005 313.015 230.054C313.083 230.072 313.124 230.142 313.107 230.211C313.09 230.27 313.038 230.308 312.981 230.308ZM311.732 226.479C311.721 226.479 311.71 226.478 311.699 226.475C311.358 226.387 311.208 226.175 311.144 226.013C311.022 225.71 311.104 225.355 311.24 225.137C311.479 224.753 311.566 224.436 311.21 224.136C311.03 223.983 311.003 223.825 311.013 223.719C311.043 223.39 311.449 223.151 311.495 223.124C311.557 223.089 311.635 223.111 311.671 223.172C311.706 223.234 311.684 223.313 311.623 223.348C311.536 223.398 311.285 223.576 311.27 223.743C311.268 223.767 311.261 223.842 311.377 223.939C311.976 224.444 311.601 225.046 311.46 225.273C311.362 225.429 311.296 225.699 311.384 225.917C311.446 226.072 311.575 226.176 311.765 226.225C311.834 226.243 311.875 226.313 311.857 226.382C311.841 226.44 311.789 226.479 311.732 226.479ZM320.856 215.964C320.862 215.972 320.867 215.982 320.871 215.993C320.99 216.325 320.899 216.567 320.801 216.711C320.619 216.982 320.277 217.114 320.021 217.124C319.568 217.141 319.256 217.248 319.208 217.712C319.184 217.947 319.067 218.058 318.974 218.109C318.683 218.268 318.258 218.069 318.21 218.045C318.146 218.014 318.12 217.937 318.151 217.874C318.183 217.81 318.259 217.783 318.323 217.815C318.412 217.859 318.702 217.965 318.849 217.884C318.871 217.873 318.935 217.836 318.952 217.685C319.035 216.906 319.744 216.878 320.011 216.868C320.197 216.86 320.456 216.764 320.588 216.568C320.682 216.43 320.695 216.265 320.63 216.08C320.606 216.014 320.64 215.94 320.707 215.916C320.763 215.895 320.824 215.916 320.856 215.964ZM318.654 227.712C318.654 227.723 318.653 227.733 318.65 227.744C318.561 228.085 318.349 228.234 318.187 228.299C317.883 228.42 317.528 228.338 317.31 228.203C316.925 227.964 316.607 227.877 316.307 228.232C316.154 228.412 315.996 228.439 315.89 228.429C315.56 228.399 315.32 227.994 315.294 227.948C315.258 227.886 315.28 227.808 315.342 227.773C315.404 227.737 315.482 227.759 315.518 227.821C315.568 227.907 315.746 228.158 315.913 228.173C315.938 228.175 316.012 228.182 316.109 228.067C316.616 227.469 317.219 227.843 317.445 227.984C317.602 228.082 317.872 228.148 318.091 228.06C318.246 227.998 318.35 227.87 318.399 227.679C318.417 227.611 318.488 227.57 318.556 227.587C318.614 227.603 318.654 227.655 318.654 227.712ZM313.003 222.464C312.636 222.464 312.337 222.166 312.337 221.799C312.337 221.434 312.636 221.136 313.003 221.136C313.37 221.136 313.668 221.434 313.668 221.799C313.667 222.166 313.369 222.464 313.003 222.464ZM313.003 221.393C312.778 221.393 312.595 221.575 312.595 221.799C312.595 222.024 312.778 222.206 313.003 222.206C313.227 222.206 313.41 222.024 313.41 221.799C313.41 221.575 313.227 221.393 313.003 221.393ZM322.991 211.504C322.624 211.504 322.326 211.206 322.326 210.839C322.326 210.473 322.624 210.175 322.991 210.175C323.358 210.175 323.657 210.473 323.657 210.839C323.656 211.206 323.357 211.504 322.991 211.504ZM322.991 210.432C322.766 210.432 322.584 210.615 322.584 210.839C322.584 211.064 322.766 211.246 322.991 211.246C323.216 211.246 323.399 211.064 323.399 210.839C323.399 210.615 323.216 210.432 322.991 210.432ZM312.684 212.856C312.317 212.856 312.018 212.558 312.018 212.192C312.018 211.825 312.317 211.528 312.684 211.528C313.051 211.528 313.349 211.826 313.349 212.192C313.348 212.558 313.051 212.856 312.684 212.856ZM312.684 211.785C312.459 211.785 312.276 211.967 312.276 212.192C312.276 212.416 312.459 212.598 312.684 212.598C312.908 212.598 313.091 212.416 313.091 212.192C313.091 211.967 312.908 211.785 312.684 211.785ZM307.929 230.309C307.562 230.309 307.263 230.011 307.263 229.644C307.263 229.279 307.562 228.981 307.929 228.981C308.296 228.981 308.594 229.279 308.594 229.644C308.594 230.011 308.296 230.309 307.929 230.309ZM307.929 229.239C307.704 229.239 307.522 229.421 307.522 229.645C307.522 229.87 307.704 230.052 307.929 230.052C308.154 230.052 308.336 229.87 308.336 229.645C308.337 229.421 308.154 229.239 307.929 229.239ZM318.301 205.994C317.934 205.994 317.636 205.696 317.636 205.33C317.636 204.964 317.934 204.666 318.301 204.666C318.668 204.666 318.967 204.964 318.967 205.33C318.966 205.696 318.667 205.994 318.301 205.994ZM318.301 204.923C318.076 204.923 317.894 205.105 317.894 205.33C317.894 205.554 318.076 205.736 318.301 205.736C318.526 205.736 318.709 205.554 318.709 205.33C318.709 205.105 318.526 204.923 318.301 204.923ZM323.399 228.008C323.032 228.008 322.733 227.71 322.733 227.343C322.733 226.977 323.032 226.679 323.399 226.679C323.766 226.679 324.064 226.977 324.064 227.343C324.064 227.71 323.766 228.008 323.399 228.008ZM323.399 226.937C323.174 226.937 322.991 227.119 322.991 227.343C322.991 227.568 323.174 227.75 323.399 227.75C323.623 227.75 323.806 227.568 323.806 227.343C323.806 227.119 323.623 226.937 323.399 226.937Z" fill="#A0C5FF"/>
<path d="M319.284 194.841L318.552 199.159C318.552 199.159 319.355 203.221 324.889 200.132L323.537 193.959L319.284 194.841Z" fill="#FECECC"/>
<path opacity="0.1" d="M323.536 193.96L319.284 194.841L318.966 196.714C319.067 196.744 319.169 196.772 319.271 196.799C319.759 196.927 320.257 197.035 320.733 197.185C321.106 197.302 321.478 197.453 321.754 197.676C322.043 197.91 322.187 198.202 322.206 198.516C322.24 199.029 321.874 199.478 321.616 199.938C321.45 200.233 321.361 200.629 320.996 200.834C320.731 200.983 320.383 201.037 320.041 201.032C320.981 201.467 322.49 201.472 324.889 200.134L323.536 193.96Z" fill="#201135"/>
<path d="M315.46 182.932C315.46 182.932 312.91 196.806 318.108 197.132C323.307 197.458 326.872 191.941 326.872 191.941C326.872 191.941 329.03 191.598 329.177 189.003C329.296 186.91 328 187.289 328 187.289C328 187.289 328.998 181.951 325.271 180.906C321.542 179.863 315.46 182.932 315.46 182.932Z" fill="#FECECC"/>
<path opacity="0.1" d="M323.105 190.104C323.162 190.441 322.794 190.785 322.283 190.872C321.771 190.958 321.311 190.754 321.254 190.416C321.197 190.079 321.565 189.735 322.076 189.649C322.588 189.563 323.048 189.767 323.105 190.104ZM317.313 190.137C317.37 190.474 317.002 190.818 316.49 190.903C315.979 190.989 315.519 190.785 315.462 190.447C315.405 190.11 315.773 189.766 316.284 189.681C316.795 189.595 317.255 189.799 317.313 190.137Z" fill="#201135"/>
<path d="M317.558 186.963C317.509 186.963 317.461 186.938 317.435 186.892C317.411 186.852 316.858 185.94 315.502 186.54C315.429 186.572 315.345 186.539 315.313 186.467C315.281 186.396 315.313 186.311 315.386 186.279C316.985 185.572 317.675 186.739 317.682 186.75C317.721 186.818 317.698 186.906 317.629 186.945C317.606 186.957 317.582 186.963 317.558 186.963ZM320.331 186.989C320.314 186.989 320.296 186.986 320.278 186.979C320.205 186.95 320.168 186.867 320.198 186.794C320.203 186.781 320.723 185.536 322.603 185.937C322.68 185.954 322.729 186.029 322.712 186.107C322.696 186.183 322.621 186.233 322.543 186.217C320.896 185.864 320.468 186.889 320.464 186.9C320.441 186.955 320.388 186.989 320.331 186.989ZM318.703 190.561C318.654 190.561 318.605 190.554 318.556 190.54C318.253 190.452 318.126 190.111 318.12 190.097C318.104 190.055 318.11 190.008 318.134 189.97C318.648 189.184 318.511 188.123 318.509 188.112C318.499 188.034 318.554 187.962 318.632 187.951C318.713 187.939 318.782 187.995 318.793 188.074C318.8 188.12 318.937 189.195 318.416 190.058C318.457 190.133 318.534 190.237 318.637 190.267C318.733 190.294 318.851 190.256 318.986 190.153C319.049 190.105 319.139 190.117 319.187 190.18C319.235 190.242 319.223 190.332 319.16 190.38C319.003 190.5 318.849 190.561 318.703 190.561Z" fill="#000141"/>
<path d="M316.868 192.42C316.868 192.42 318.499 193.158 320.325 192.309C320.74 193.068 318.575 195.041 316.868 192.42Z" fill="#FCFAF7"/>
<path d="M317.124 188.114C317.124 188.559 316.877 188.919 316.573 188.919C316.268 188.919 316.021 188.559 316.021 188.114C316.021 187.669 316.268 187.309 316.573 187.309C316.877 187.309 317.124 187.67 317.124 188.114ZM322.089 188.114C322.089 188.559 321.843 188.919 321.537 188.919C321.233 188.919 320.986 188.559 320.986 188.114C320.986 187.669 321.233 187.309 321.537 187.309C321.843 187.309 322.089 187.67 322.089 188.114Z" fill="#000141"/>
<path opacity="0.1" d="M318.982 194.442C318.831 194.442 318.733 194.419 318.723 194.417C318.685 194.408 318.661 194.37 318.67 194.332C318.679 194.294 318.718 194.27 318.757 194.279C318.763 194.281 319.39 194.42 319.959 193.927C319.99 193.903 320.035 193.906 320.06 193.935C320.086 193.964 320.083 194.01 320.053 194.036C319.657 194.377 319.242 194.442 318.982 194.442Z" fill="#201135"/>
<path opacity="0.1" d="M327.754 188.138C327.754 188.138 328.587 187.746 328.751 188.334C328.915 188.922 328.392 190.407 327.591 190.75C327.591 190.75 329.046 189.347 328.572 188.497C328.098 187.648 327.803 188.546 327.754 188.138Z" fill="#201135"/>
<path d="M324.659 198.909C324.659 198.909 325.906 200.055 325.231 201.816C324.659 203.311 323.918 204.625 321.823 204.262C319.729 203.9 319.654 201.816 319.654 201.816C319.654 201.816 317.844 204.213 316.333 202.954C313.767 200.814 318.623 198.743 318.623 198.743C318.623 198.743 318.553 199.96 320.39 200.505C322.228 201.051 324.659 198.909 324.659 198.909Z" fill="#A0C5FF"/>
<path d="M323.27 181.774C323.27 181.774 321.768 184.504 320.157 184.387C318.545 184.27 318.394 183.971 318.394 183.971C318.394 183.971 317.459 185.4 315.073 185.284C312.687 185.167 312.492 183.532 312.492 183.532C312.492 183.532 310.722 182.978 311.242 180.994C311.762 179.011 313.437 179.629 313.437 179.629C313.437 179.629 312.545 178.42 314.255 177.095C315.967 175.769 317.625 178.147 317.625 178.147C317.625 178.147 318.084 177.46 320.443 176.693C322.803 175.925 324.421 178.46 324.421 178.46C324.421 178.46 327.684 177.407 328.349 180.527C328.349 180.527 330.536 181.813 329.56 183.724C329.56 183.724 331.211 187.545 327.82 187.565C327.82 187.565 327.255 189.49 325.888 189.376C324.521 189.262 325.31 187.367 325.014 186.618C324.715 185.869 322.528 185.206 323.27 181.774Z" fill="#000141"/>
<path d="M336.452 218.17C336.452 218.17 340.586 229.651 338.608 231.701H322.326C322.326 231.701 329.017 229.454 329.184 226.937C329.351 224.419 326.925 220.6 326.925 220.6L336.452 218.17Z" fill="#FECECC"/>
<path d="M325.884 222.571C325.884 222.571 333.507 224.841 337.645 219.545C337.645 219.545 335.75 206.433 327.958 200.763C323.307 201.851 325.884 222.571 325.884 222.571Z" fill="#A0C5FF"/>
<path opacity="0.1" d="M299.371 148.606H226.979C225.031 148.606 223.451 150.185 223.454 152.13L223.499 188.199C223.501 190.142 225.08 191.714 227.024 191.714H288.256L295.577 194.214L297.109 191.714H299.372C304.155 191.714 308.032 187.843 308.032 183.068V157.254C308.031 152.478 304.154 148.606 299.371 148.606Z" fill="#000141"/>
<path d="M295.577 188.26V194.214L283.331 188.977L295.577 188.26Z" fill="white"/>
<path d="M228.456 147.325H297.836C302.62 147.325 306.497 151.196 306.497 155.972V181.784C306.497 186.56 302.62 190.431 297.836 190.431H228.456C223.673 190.431 219.796 186.56 219.796 181.784V155.972C219.796 151.196 223.673 147.325 228.456 147.325Z" fill="white"/>
<path d="M232.339 167.667C229.765 167.667 227.679 169.75 227.679 172.319C227.679 174.889 229.765 176.971 232.339 176.971C234.912 176.971 236.998 174.889 236.998 172.319C236.998 169.75 234.912 167.667 232.339 167.667ZM232.339 176.205C230.188 176.205 228.441 174.465 228.441 172.318C228.441 170.171 230.187 168.432 232.339 168.432C234.489 168.432 236.231 170.171 236.231 172.318C236.231 174.465 234.489 176.205 232.339 176.205Z" fill="#A0C5FF"/>
<path d="M232.95 172.318C232.95 172.656 232.676 172.93 232.338 172.93C231.999 172.93 231.724 172.656 231.724 172.318C231.724 171.98 231.999 171.707 232.338 171.707C232.676 171.707 232.95 171.98 232.95 172.318Z" fill="#A0C5FF"/>
<path d="M232.336 169.023C232.12 169.023 231.943 169.199 231.943 169.416V172.144C231.943 172.36 232.119 172.537 232.336 172.537C232.553 172.537 232.73 172.361 232.73 172.144V169.416C232.73 169.199 232.553 169.023 232.336 169.023Z" fill="#A0C5FF"/>
<path d="M234.636 170.148C234.483 169.995 234.234 169.995 234.08 170.148L232.148 172.076C231.995 172.229 231.995 172.478 232.148 172.632C232.301 172.785 232.55 172.785 232.705 172.632L234.636 170.703C234.789 170.549 234.789 170.3 234.636 170.148Z" fill="#A0C5FF"/>
<path d="M254.67 168.746H242.411C242.11 168.746 241.83 168.952 241.782 169.249C241.72 169.628 242.012 169.954 242.379 169.954H254.671C255.006 169.954 255.277 169.684 255.277 169.35C255.275 169.017 255.004 168.746 254.67 168.746ZM278.083 168.746H256.703C256.368 168.746 256.098 169.017 256.098 169.351C256.098 169.685 256.368 169.955 256.703 169.955H278.115C278.483 169.955 278.774 169.628 278.712 169.25C278.664 168.952 278.384 168.746 278.083 168.746ZM259.954 171.714H242.41C242.109 171.714 241.829 171.919 241.78 172.216C241.718 172.595 242.01 172.923 242.377 172.923H259.953C260.288 172.923 260.559 172.652 260.559 172.318C260.56 171.985 260.289 171.714 259.954 171.714ZM259.954 174.682H242.41C242.109 174.682 241.829 174.888 241.78 175.185C241.718 175.564 242.01 175.891 242.377 175.891H259.953C260.288 175.891 260.559 175.621 260.559 175.287C260.56 174.952 260.289 174.682 259.954 174.682ZM278.083 171.714H261.988C261.653 171.714 261.382 171.984 261.382 172.318C261.382 172.652 261.653 172.923 261.988 172.923H278.115C278.483 172.923 278.774 172.596 278.712 172.216C278.664 171.919 278.384 171.714 278.083 171.714Z" fill="#A0C5FF"/>
<path d="M221.329 160.498V155.972C221.329 152.048 224.526 148.856 228.455 148.856H297.835C301.765 148.856 304.962 152.048 304.962 155.972V160.498H221.329Z" fill="#CB4E42"/>
<path d="M298.26 165.145H287.058C284.999 165.145 283.331 166.811 283.331 168.866V179.975C283.331 182.03 284.999 183.696 287.058 183.696H298.26C300.319 183.696 301.987 182.03 301.987 179.975V168.866C301.987 166.811 300.319 165.145 298.26 165.145Z" fill="#E7F0FE"/>
<path d="M301.328 170.814V168.866C301.328 167.177 299.952 165.803 298.26 165.803H287.058C285.366 165.803 283.99 167.177 283.99 168.866V170.814H301.328Z" fill="#A0C5FF"/>
<path d="M289.454 168.94L289.314 169.368H288.856L289.453 167.716H289.981L290.578 169.368H290.107L289.968 168.94H289.454ZM289.56 168.605H289.867L289.714 168.097L289.56 168.605ZM292.206 168.253C292.206 168.579 291.988 168.749 291.748 168.777C291.659 168.787 291.592 168.789 291.489 168.789H291.296V169.368H290.864V167.716H291.488C291.591 167.716 291.657 167.718 291.747 167.728C291.988 167.757 292.206 167.927 292.206 168.253ZM291.756 168.253C291.756 168.129 291.691 168.064 291.581 168.054C291.549 168.052 291.511 168.052 291.466 168.052H291.298V168.455H291.466C291.511 168.455 291.55 168.455 291.581 168.453C291.691 168.442 291.756 168.378 291.756 168.253ZM293.956 169.368H293.486C293.448 169.251 293.423 169.156 293.41 169.038C293.388 168.856 293.316 168.751 293.205 168.743C293.157 168.74 293.117 168.74 293.069 168.74H292.973V169.367H292.541V167.715H293.197C293.301 167.715 293.368 167.717 293.457 167.727C293.696 167.755 293.905 167.873 293.905 168.165C293.905 168.374 293.792 168.512 293.571 168.577C293.744 168.639 293.807 168.766 293.831 168.965C293.853 169.154 293.891 169.27 293.956 169.368ZM293.129 168.431C293.174 168.431 293.213 168.431 293.244 168.429C293.354 168.419 293.455 168.381 293.455 168.242C293.455 168.104 293.366 168.065 293.255 168.055C293.224 168.053 293.186 168.053 293.141 168.053H292.973V168.432H293.129V168.431ZM294.309 169.368V167.716H294.741V169.368H294.309ZM296.462 169.368H295.194V167.716H295.626V169.005H296.463V169.368H296.462Z" fill="white"/>
<path d="M291.762 178.214V179.494H286.865V178.781L288.852 176.917C289.794 176.03 290.115 175.592 290.115 174.99C290.115 174.514 289.85 174.25 289.402 174.25C288.926 174.25 288.688 174.552 288.623 175.209L288.614 175.3H286.967L286.976 175.209C287.114 173.821 287.992 173.043 289.539 173.043C291.012 173.043 291.837 173.747 291.837 174.926C291.837 175.666 291.498 176.233 290.281 177.402L289.439 178.216H291.762V178.214ZM298.453 177.62C298.453 178.826 297.464 179.621 295.871 179.621C294.269 179.621 293.336 178.844 293.207 177.584L293.198 177.493H294.845L294.864 177.584C294.955 178.023 295.267 178.416 295.807 178.416C296.375 178.416 296.732 178.096 296.732 177.666C296.732 177.127 296.338 176.853 295.68 176.825L295.432 176.816V175.756L295.68 175.737C296.283 175.691 296.586 175.363 296.586 174.933C296.586 174.521 296.338 174.266 295.881 174.266C295.396 174.266 295.195 174.658 295.158 175.07L295.149 175.161H293.501L293.51 175.07C293.619 174.01 294.407 173.059 296.045 173.059C297.592 173.059 298.306 173.845 298.306 174.741C298.306 175.481 297.931 175.975 297.106 176.176C298.004 176.349 298.453 176.807 298.453 177.62Z" fill="#A0C5FF"/>
<path d="M178.124 111.438C177.111 118.029 177.443 122.046 178.005 125.245C178.986 130.883 180.679 134.039 177.022 144.366C171.283 160.554 154.812 148.652 140.293 162.609C124.321 177.982 109.182 184.258 96.5155 184.351C81.6279 184.463 70.1376 176.009 64.6604 163.692C54.5275 140.869 63.7868 133.923 84.0132 127.331C104.228 120.741 95.108 101.948 105.859 95.1736C116.612 88.4116 129.675 90.304 134.793 85.9871C139.909 81.6702 155.502 75.7579 169.59 81.3821C181.361 86.0636 180.907 93.2626 178.124 111.438Z" fill="#000141"/>
<path opacity="0.5" d="M177.022 144.366C171.283 160.554 154.813 148.652 140.293 162.609C124.321 177.982 109.182 184.258 96.5156 184.351C96.5608 184.024 96.5941 183.699 96.6413 183.385C98.0577 173.117 101.073 162.402 105.794 153.162C110.394 144.148 117.26 136.935 125.312 130.905C129.365 127.857 133.628 125.102 137.846 122.291C140.069 120.804 142.336 119.373 144.76 118.217C147.07 117.127 149.668 116.369 151.688 114.746C154.943 112.131 155.973 108.128 156.389 104.165C156.752 100.666 156.823 96.9925 159.252 94.4063C165.241 93.4841 165.31 102.493 165.671 106.544C165.961 109.838 166.499 113.139 167.491 116.308C168.748 120.32 171.28 123.26 175.327 124.591C176.203 124.876 177.095 125.097 178.003 125.243C178.986 130.883 180.68 134.038 177.022 144.366Z" fill="black"/>
<path d="M172.776 137.031L171.97 124.97C171.97 124.97 193.968 130.168 201.281 177.384C203.981 194.816 198.564 201.818 190.068 203.182C181.57 204.547 160.174 174.413 172.776 137.031Z" fill="#FFBA14"/>
<path d="M211.653 114.614C211.626 114.803 211.585 114.971 211.541 115.099C211.531 115.125 211.523 115.149 211.515 115.17C211.294 115.712 211.046 116.242 210.801 116.724C210.144 118.022 209.508 118.993 209.508 118.993C209.508 118.993 209.335 127.459 208.906 128.478C208.083 129.34 203.511 128.209 203.511 128.209C202.891 127.374 204.113 118.944 204.01 117.275C203.909 115.604 204.499 113.71 204.499 113.71C204.499 113.71 204.615 105.081 206.568 105.112C207.437 105.125 207.065 109.481 207.112 111.154C207.113 111.167 207.112 111.181 207.113 111.195C207.115 111.191 207.712 110.712 208.315 111.065C208.61 111.237 208.695 111.453 208.695 111.453C208.695 111.453 209.123 111.297 209.436 111.391C209.75 111.485 210.173 111.799 210.166 111.956C210.172 111.956 210.543 111.797 210.877 112.038C211.21 112.278 211.311 112.886 211.311 112.886H211.307C211.351 112.948 211.391 113.01 211.426 113.073C211.694 113.561 211.717 114.154 211.653 114.614Z" fill="#FECECC"/>
<path opacity="0.2" d="M211.653 114.614C211.596 114.551 211.529 114.499 211.447 114.468C211.081 114.329 210.844 114.644 210.712 114.914C210.634 115.072 210.582 115.249 210.485 115.397C210.403 115.527 210.258 115.633 210.125 115.711C208.989 116.401 206.748 115.816 206.73 114.347C206.722 113.746 206.77 113.12 206.848 112.528C206.914 112.034 206.949 111.661 207.113 111.195C207.115 111.191 207.712 110.712 208.315 111.065C208.61 111.237 208.695 111.453 208.695 111.453C208.695 111.453 209.123 111.297 209.436 111.391C209.75 111.485 210.173 111.799 210.166 111.956C210.172 111.956 210.543 111.797 210.877 112.038C211.21 112.278 211.311 112.886 211.311 112.886H211.307C211.351 112.948 211.391 113.01 211.426 113.073C211.694 113.561 211.717 114.154 211.653 114.614Z" fill="white"/>
<path opacity="0.1" d="M210.829 114.622C210.496 116.105 209.685 116.431 209.326 116.501C208.367 116.269 207.478 115.891 207.058 115.493C206.765 115.216 206.67 114.581 206.682 113.861C206.674 113.9 206.667 113.94 206.659 113.98C206.541 114.64 206.442 115.403 206.741 116.031C207.037 116.651 207.693 116.933 208.351 116.958C208.879 116.979 209.408 116.867 209.914 116.697H209.915C209.916 116.697 209.917 116.696 209.918 116.695C209.965 116.68 210.012 116.664 210.059 116.647C210.046 116.645 210.033 116.643 210.021 116.641C210.806 116.187 210.829 114.622 210.829 114.622Z" fill="#5D74E4"/>
<path d="M209.304 116.332C209.499 115.89 209.619 115.527 209.742 115.065C209.864 114.592 209.947 114.103 209.917 113.617C209.913 114.104 209.797 114.579 209.645 115.036C209.49 115.492 209.088 116.329 209.088 116.329C208.923 116.326 208.378 116.126 208.148 116.027C208.136 116.022 208.125 116.017 208.113 116.012C208.273 115.547 208.415 115.079 208.535 114.604C208.653 114.124 208.758 113.635 208.778 113.14C208.725 113.632 208.588 114.108 208.437 114.577C208.287 115.035 208.115 115.488 207.929 115.931C207.774 115.86 207.621 115.788 207.479 115.698C207.09 115.449 206.916 115.245 206.793 114.511C206.752 114.265 206.744 114.012 206.739 113.759C206.728 113.506 206.734 113.254 206.74 112.999C206.645 113.5 206.605 114.011 206.639 114.527C206.658 114.784 206.697 115.045 206.808 115.296C206.84 115.357 206.866 115.421 206.913 115.476L206.979 115.561L207.053 115.631C207.102 115.68 207.154 115.721 207.209 115.759C207.262 115.801 207.317 115.838 207.374 115.87C207.827 116.139 208.316 116.307 208.81 116.439C209.305 116.569 209.787 116.543 210.231 115.938C209.943 116.28 209.409 116.362 209.304 116.332Z" fill="#EAB2B2"/>
<path opacity="0.1" d="M209.461 118.909C208.83 119.407 207.529 119.336 206.35 119.149C205.452 119.008 204.732 118.475 204.22 117.947C204.284 118.1 204.353 118.253 204.434 118.401C204.646 118.787 205.479 120.511 206.657 120.589C208.498 120.711 209.09 119.158 209.451 118.983C209.454 118.958 209.458 118.934 209.461 118.909Z" fill="#5D74E4"/>
<path opacity="0.1" d="M206.522 113.379C206.522 113.379 206.709 113.894 206.253 114.049C205.798 114.204 205.094 113.572 204.911 114.856C204.729 116.139 204.136 117.616 203.998 116.567C203.86 115.518 203.685 113.651 204.406 113.374C205.127 113.096 206.522 113.379 206.522 113.379Z" fill="#5D74E4"/>
<path d="M204.01 117.275C204.01 117.275 202.664 114.735 202.63 113.869C202.597 113.003 203.652 111.939 204.301 111.86C204.901 111.788 206.205 112.552 206.458 112.943C206.712 113.334 206.93 113.886 205.721 113.802C204.511 113.719 204.442 114.041 204.442 114.041L204.01 117.275Z" fill="#EAB2B2"/>
<path opacity="0.2" d="M205.683 113.007C205.683 113.007 206.34 113.49 206.489 113.436C206.638 113.382 206.372 112.844 206.122 112.745C205.871 112.646 205.683 113.007 205.683 113.007Z" fill="white"/>
<path d="M202.817 123.287C202.816 124.291 190.802 167.98 190.132 171.175C183.975 200.508 201.719 201.312 201.719 201.312C201.98 201.224 202.239 201.133 202.476 201.015C221.575 191.495 210.247 122.944 210.247 122.944C210.247 122.944 202.837 122.249 202.817 123.287Z" fill="#FFBA14"/>
<g opacity="0.1">
<path d="M205.768 191.768C204.131 191.457 202.728 190.549 202.114 188.956C201.483 187.32 201.607 185.462 201.817 183.757C202.065 181.75 202.507 179.772 202.812 177.774C203.065 176.105 203.346 174.227 202.775 172.592C201.823 169.861 200.036 167.523 198.461 165.132C196.809 162.621 195.39 160.013 194.938 157.006C194.787 155.998 194.718 154.985 194.686 153.97C192.369 162.567 190.393 169.933 190.132 171.175C183.975 200.508 201.719 201.312 201.719 201.312C201.98 201.224 202.239 201.133 202.476 201.015C205.723 199.396 208.09 196.068 209.783 191.663C208.473 191.981 207.094 192.021 205.768 191.768Z" fill="#000141"/>
</g>
<path d="M120.901 232.37H191.712C186.104 198.15 194.264 127.767 163.363 121.331C146.999 117.922 116.685 140.326 123.759 170.168C125.7 190.964 128.747 211.496 120.901 232.37Z" fill="#C7DBFF"/>
<path d="M178.475 179.233C178.475 180.052 178.516 180.913 178.557 181.731C178.516 181.772 178.557 181.772 178.557 181.772C178.626 184.471 178.741 187.289 178.886 190.048C178.923 191.1 178.936 192.108 179.05 193.122C179.118 195.145 179.233 197.399 179.336 199.431C180.036 215.221 182.071 222.683 184.345 232.37H198.543C194.143 119.73 173.58 126.438 171.27 124.897C170.867 136.1 177.832 163.31 178.475 179.152C178.434 179.192 178.434 179.192 178.475 179.233Z" fill="#C7DBFF"/>
<path d="M150.316 231.7C151.505 226.546 158.022 222.22 158.329 211.99C158.371 211.948 158.371 211.907 158.329 211.866C158.392 210.845 158.365 209.656 158.371 208.629C158.371 208.589 158.371 208.589 158.329 208.549C158.234 190.589 155.749 172.387 152.584 154.797C152.544 154.756 152.544 154.756 152.544 154.756C150.842 147.662 149.639 123.828 151.101 122.626C148.098 125.091 142.527 133.675 140.038 136.418C141.378 139.55 145.649 145.595 147.045 148.855L135.719 171.348C151.799 194.874 150.316 231.7 150.316 231.7ZM174.412 149.895C175.755 164.504 167.301 202.607 176.008 231.458C176.008 231.458 177.509 194.874 183.769 172.036L174.836 152.74C182.707 148.793 180.329 139.552 181.278 136.42C178.446 133.677 172.295 124.496 168.663 123.318C171.941 124.381 172.871 133.136 174.412 149.895Z" fill="#FFBA14"/>
<path d="M150.316 124.314C149.801 126.595 152.304 136.588 158.201 141.189C160.597 143.176 163.288 144.317 165.904 143.875C174.64 142.476 170.475 128.087 168.964 123.892C168.927 123.745 168.853 123.597 168.817 123.487C167.416 119.918 167.932 107.7 167.932 107.7L158.975 105.823C158.975 105.823 159.528 107.958 157.243 114.103C154.92 120.249 151.089 121.113 150.316 124.314Z" fill="#FECECC"/>
<path opacity="0.5" d="M158.201 141.189C160.597 143.176 163.287 144.317 165.904 143.875C174.639 142.476 170.475 128.087 168.964 123.892C168.927 123.745 168.853 123.597 168.817 123.487C167.416 119.918 167.932 107.7 167.932 107.7L159.528 105.97C159.823 106.191 160.007 106.559 160.044 107.037C160.229 111.932 164.467 115.354 166.236 119.696C167.6 123.046 168.484 127.645 166.421 130.92C165.831 131.878 161.702 137.104 158.201 141.189Z" fill="#EAB2B2"/>
<path d="M174.205 112.188C171.011 116.647 159.225 112.79 157.893 107.042C157.478 105.233 156.767 102.123 156.767 102.123C156.767 102.123 153.933 100.884 154.336 97.9872C154.674 95.745 156.531 97.162 156.531 97.162L156.521 94.6719L174.019 92.5168C174.019 92.5168 174.293 93.783 174.65 95.7332C174.823 96.7377 174.985 97.9519 175.166 99.2318C175.733 103.89 175.982 109.734 174.205 112.188Z" fill="#FECECC"/>
<path opacity="0.5" d="M175.166 99.2298C172.605 99.7424 169.423 100.167 167.776 100.035C164.876 99.7855 156.563 96.6809 156.563 96.6809L173.556 91.5398C174.619 92.8589 174.985 97.95 175.166 99.2298Z" fill="#EAB2B2"/>
<path opacity="0.1" d="M163.364 105.416C163.34 105.933 163.956 106.382 164.739 106.418C165.522 106.454 166.177 106.065 166.202 105.548C166.226 105.031 165.611 104.583 164.826 104.545C164.043 104.509 163.388 104.899 163.364 105.416ZM172.068 104.414C172.043 104.931 172.659 105.379 173.443 105.416C174.226 105.452 174.881 105.063 174.905 104.545C174.93 104.029 174.313 103.58 173.53 103.544C172.746 103.507 172.092 103.897 172.068 104.414Z" fill="#201135"/>
<path d="M171.122 99.6944C171.197 99.6855 171.264 99.6385 171.295 99.565C171.323 99.5013 171.988 98.0313 174.133 98.686C174.249 98.7203 174.369 98.6565 174.403 98.5429C174.437 98.4292 174.373 98.3086 174.26 98.2734C171.731 97.5001 170.906 99.3778 170.898 99.3965C170.852 99.5062 170.903 99.6326 171.013 99.6797C171.048 99.6944 171.086 99.6993 171.122 99.6944ZM166.964 100.235C166.99 100.232 167.017 100.224 167.041 100.211C167.146 100.154 167.185 100.023 167.127 99.9188C167.118 99.9002 166.111 98.1254 163.361 99.0691C163.248 99.1073 163.188 99.2308 163.228 99.3435C163.267 99.4562 163.388 99.517 163.502 99.4778C165.911 98.6497 166.74 100.111 166.749 100.126C166.791 100.204 166.878 100.246 166.964 100.235ZM170.057 105.304C170.132 105.295 170.204 105.275 170.272 105.246C170.711 105.059 170.842 104.524 170.848 104.501C170.863 104.435 170.847 104.365 170.802 104.313C169.89 103.226 169.901 101.607 169.901 101.592C169.903 101.472 169.807 101.374 169.688 101.373C169.566 101.37 169.47 101.467 169.469 101.586C169.469 101.657 169.457 103.295 170.396 104.497C170.348 104.617 170.252 104.787 170.102 104.85C169.962 104.908 169.778 104.874 169.557 104.742C169.454 104.682 169.321 104.716 169.261 104.819C169.201 104.922 169.235 105.054 169.338 105.115C169.596 105.267 169.838 105.33 170.057 105.304Z" fill="#000141"/>
<path d="M173.15 107.763C173.15 107.763 170.837 109.166 167.939 108.223C167.455 109.436 171.065 112.005 173.15 107.763Z" fill="#FCFAF7"/>
<path d="M171.982 101.344C172.063 102.011 172.5 102.508 172.957 102.452C173.415 102.397 173.72 101.81 173.639 101.143C173.559 100.475 173.122 99.9786 172.665 100.034C172.207 100.09 171.902 100.676 171.982 101.344ZM164.528 102.243C164.609 102.911 165.046 103.408 165.503 103.352C165.96 103.297 166.266 102.711 166.185 102.042C166.105 101.375 165.668 100.878 165.211 100.934C164.752 100.99 164.447 101.576 164.528 102.243Z" fill="#000141"/>
<path opacity="0.1" d="M170.343 111.181C170.57 111.154 170.713 111.103 170.728 111.097C170.784 111.076 170.812 111.014 170.792 110.958C170.771 110.903 170.708 110.874 170.653 110.894C170.645 110.898 169.728 111.22 168.784 110.583C168.733 110.552 168.668 110.564 168.634 110.613C168.601 110.662 168.615 110.729 168.664 110.762C169.319 111.205 169.954 111.228 170.343 111.181Z" fill="#201135"/>
<path opacity="0.5" d="M156.118 97.7363C156.118 97.7363 155.484 97.0552 155.18 97.5736C154.877 98.093 155.078 100.066 156.055 100.727C156.055 100.727 155.051 98.9574 155.338 98.3508C155.623 97.7432 156.395 98.2469 156.118 97.7363Z" fill="#EAB2B2"/>
<path d="M174.37 96.0693C174.062 94.6131 173.538 93.7477 171.859 93.3822C171.538 93.3116 173.4 94.6219 173.551 96.5329C172.643 97.1483 171.569 97.6716 170.442 98.0039C166.282 99.2436 156.158 96.5525 156.158 96.5525C154.861 82.5248 174.768 86.2027 176.855 91.184C177.314 92.2738 175.962 94.5837 174.37 96.0693Z" fill="#000141"/>
<path d="M169.089 224.646C177.623 201.418 181.489 176.932 180.291 150.373C180.241 149.29 179.456 148.515 178.552 148.633C166.273 150.255 153.115 151.54 139.004 152.465C138.329 152.51 137.755 153.29 137.698 154.208C136.35 176.923 131.142 198.344 122.169 218.971C121.793 219.835 122.069 220.638 122.799 220.758C138.138 223.282 152.731 225.097 166.577 226.267C167.595 226.356 168.731 225.624 169.089 224.646Z" fill="white"/>
<g opacity="0.2">
<path opacity="0.1" d="M167.645 218.006C174.399 197.741 177.631 176.464 177.086 153.643C165.755 154.892 153.706 155.851 140.894 156.506C139.548 177.737 134.813 197.828 126.781 217.193C135.714 218.524 144.382 219.621 152.786 220.497C157.859 219.692 162.81 218.861 167.645 218.006Z" fill="#5D74E4"/>
</g>
<path d="M167.301 217.068C173.955 196.827 177.102 175.559 176.485 152.731C165.22 154.002 153.242 154.988 140.503 155.677C139.225 176.904 134.571 196.98 126.634 216.316C135.528 217.627 144.158 218.709 152.525 219.571C157.57 218.762 162.494 217.927 167.301 217.068Z" fill="#A0C5FF"/>
<g opacity="0.1">
<path d="M176.485 152.731C174.038 153.007 171.541 153.264 169.025 153.513C171.589 159.12 173.116 165.296 171.139 170.907C169.574 175.346 166.311 177.958 161.948 179.366C160.707 179.767 158.984 180.215 158.138 181.312C158.117 181.338 158.107 181.345 158.09 181.366C158.09 181.367 158.091 181.367 158.091 181.368C158.113 181.537 158.441 181.991 158.495 182.091C159.554 184.038 160.346 186.079 160.599 188.294C161.045 192.201 159.287 195.582 156.113 197.829C151.835 200.857 146.228 203.255 140.998 203.816C137.84 204.156 134.65 203.717 131.553 202.891C130.08 207.406 128.454 211.884 126.634 216.316C135.528 217.628 144.158 218.709 152.526 219.571C157.571 218.762 162.495 217.927 167.302 217.068C173.955 196.827 177.103 175.559 176.485 152.731Z" fill="#5D74E4"/>
</g>
<path d="M167.301 217.068C166.447 216.035 165.587 214.99 164.72 213.931C160.778 215.799 156.715 217.68 152.525 219.571C157.57 218.762 162.494 217.927 167.301 217.068Z" fill="#A0C5FF"/>
<path opacity="0.25" d="M122.001 206.423V214.185C122.001 214.185 144.728 221.048 158.63 210.304C172.532 199.56 172.119 194.733 172.119 194.733C172.119 194.733 178.954 197.496 178.619 194.38C178.283 191.265 171.136 189.319 168.247 189.963C165.359 190.608 122.001 206.423 122.001 206.423Z" fill="#FFBA14"/>
<path d="M171.984 188.354C170.437 188.714 163.695 188.565 163.012 189.275C163.012 189.275 162.688 192.985 163.626 193.616C164.649 193.857 172.384 192.985 172.384 192.985C172.384 192.985 173.301 193.816 175.301 194.255C175.834 194.372 176.374 194.459 176.888 194.498V194.5C176.89 194.5 176.89 194.5 176.893 194.502C176.919 194.504 177.05 194.529 177.243 194.559H177.245C177.94 194.669 179.433 194.871 179.672 194.597C179.974 194.254 180.103 193.762 179.812 193.469C179.824 193.454 179.835 193.437 179.848 193.423C180.029 193.401 180.486 193.309 180.668 192.949C180.848 192.599 180.63 192.316 180.523 192.205C180.529 192.187 180.537 192.168 180.543 192.151C180.694 192.141 181.025 192.095 181.11 191.88C181.218 191.603 181.308 191.121 180.889 190.888C180.891 190.882 180.891 190.875 180.893 190.869C180.982 190.824 181.323 190.622 181.274 190.132C181.218 189.57 180.955 189.492 180.955 189.492C180.955 189.492 181.296 189.027 181.222 188.635C181.149 188.241 180.796 187.759 179.901 187.641L179.893 187.642C179.807 187.608 179.714 187.578 179.615 187.563C179.211 187.497 178.812 187.461 178.433 187.447C178.356 187.445 178.279 187.444 178.202 187.441C176.726 187.413 175.598 187.688 175.598 187.688C175.598 187.688 177.697 185.588 176.891 184.429C176.088 183.271 173.533 187.993 171.984 188.354Z" fill="#FECECC"/>
<path opacity="0.2" d="M178.434 187.447C179.047 189.896 177.536 193.228 176.889 194.497C176.887 194.497 176.887 194.499 176.887 194.499H176.889C176.891 194.499 176.891 194.499 176.894 194.501C176.997 194.508 177.115 194.529 177.244 194.558H177.246C177.941 194.668 179.434 194.87 179.673 194.596C179.975 194.253 180.104 193.761 179.813 193.468C179.825 193.453 179.836 193.436 179.849 193.422C180.03 193.4 180.487 193.308 180.669 192.948C180.849 192.598 180.631 192.315 180.524 192.204C180.53 192.186 180.538 192.167 180.544 192.15C180.695 192.14 181.026 192.094 181.111 191.879C181.219 191.602 181.309 191.12 180.89 190.887C180.892 190.881 180.892 190.874 180.894 190.868C180.983 190.823 181.324 190.621 181.275 190.131C181.219 189.569 180.956 189.491 180.956 189.491C180.956 189.491 181.297 189.026 181.223 188.634C181.15 188.24 180.797 187.758 179.902 187.64L179.894 187.641C179.808 187.607 179.715 187.577 179.616 187.562C179.211 187.498 178.812 187.462 178.434 187.447Z" fill="white"/>
<path d="M179.748 193.32C179.446 193.141 179.135 192.996 178.812 192.876C178.489 192.756 178.155 192.668 177.814 192.633C178.151 192.693 178.475 192.805 178.783 192.946C179.09 193.087 179.388 193.256 179.662 193.447L179.664 193.448C179.699 193.473 179.747 193.465 179.771 193.429C179.796 193.395 179.787 193.347 179.753 193.324C179.751 193.322 179.749 193.321 179.748 193.32ZM180.857 189.376C180.519 189.193 180.172 189.046 179.813 188.927C179.454 188.809 179.083 188.726 178.709 188.702C179.081 188.755 179.439 188.864 179.784 189.006C180.127 189.148 180.461 189.32 180.768 189.518L180.77 189.52C180.809 189.546 180.862 189.535 180.886 189.496C180.912 189.457 180.901 189.405 180.862 189.38C180.861 189.378 180.859 189.377 180.857 189.376ZM180.781 190.732C180.445 190.533 180.096 190.371 179.734 190.236C179.373 190.102 178.999 190.003 178.618 189.964C178.995 190.032 179.357 190.157 179.702 190.315C180.045 190.473 180.38 190.661 180.685 190.875L180.688 190.877C180.726 190.904 180.78 190.894 180.807 190.856C180.834 190.818 180.824 190.764 180.786 190.737C180.785 190.735 180.783 190.733 180.781 190.732ZM180.443 192.032C180.106 191.833 179.758 191.67 179.397 191.536C179.037 191.403 178.663 191.305 178.283 191.266C178.659 191.333 179.02 191.458 179.365 191.615C179.708 191.773 180.041 191.96 180.346 192.174L180.349 192.176C180.389 192.203 180.442 192.194 180.468 192.155C180.496 192.117 180.486 192.063 180.448 192.037C180.446 192.034 180.444 192.033 180.443 192.032Z" fill="#FF97A6"/>
<path opacity="0.2" d="M176.377 184.394C176.377 184.394 175.781 185.33 175.582 185.343C175.383 185.357 175.319 185.123 175.319 185.123C175.319 185.123 176.026 184.325 176.377 184.394Z" fill="white"/>
<path d="M138.738 129.676C138.738 129.676 101.742 158.579 110.153 198.933C112.065 208.106 133.58 195.387 131.791 190.967C120.551 163.199 138.738 129.676 138.738 129.676Z" fill="#FFBA14"/>
<path opacity="0.25" d="M130.841 188.386C127.348 178.028 127.652 167.054 129.376 157.43C129.376 157.424 129.376 157.419 129.376 157.413C129.393 156.044 129.515 154.679 129.647 153.317C128.628 154.248 127.819 155.393 127.098 156.562C126.257 157.925 125.535 159.356 124.785 160.769C124.414 161.469 124.026 162.154 123.756 162.901C123.48 163.668 123.311 164.466 123.236 165.277C123.095 166.823 123.3 168.371 123.558 169.895C124.048 172.793 124.926 175.963 123.621 178.768C123.058 179.976 122.23 181.027 121.434 182.086C120.513 183.311 119.673 184.588 119 185.967C117.652 188.728 116.922 191.846 117.498 194.893C118.858 193.518 120.366 192.296 122.027 191.297C124.709 189.687 127.735 188.713 130.841 188.386Z" fill="#000141"/>
<path d="M170.124 187.127C170.124 187.127 172.065 192.784 170.14 194.945C168.216 197.107 131.255 209.812 120.901 207.654C102.463 203.811 108.615 188.837 125.214 185.954C141.814 183.072 170.124 187.127 170.124 187.127Z" fill="#FFBA14"/>
<path d="M111.015 232.402H204.394C204.649 232.402 204.856 232.195 204.856 231.94C204.856 231.686 204.649 231.479 204.394 231.479H111.015C110.759 231.479 110.552 231.686 110.552 231.94C110.552 232.195 110.759 232.402 111.015 232.402Z" fill="#A0C5FF"/>
<path d="M255.955 87.8315C255.955 89.8032 254.721 91.0351 252.801 91.0351C250.879 91.0351 249.645 89.8032 249.645 87.8315C249.645 85.8499 250.879 84.6278 252.801 84.6278C254.721 84.6278 255.955 85.8499 255.955 87.8315ZM254.31 87.8315C254.31 86.5192 253.729 85.8058 252.8 85.8058C251.87 85.8058 251.289 86.5192 251.289 87.8315C251.289 89.1339 251.87 89.8571 252.8 89.8571C253.729 89.8571 254.31 89.1339 254.31 87.8315ZM261.213 90.9096L258.969 86.8397C259.023 87.4649 259.023 88.0088 259.023 88.3656V90.9087H257.414V84.7513H259.416L261.758 88.9996C261.713 88.3744 261.704 87.7413 261.704 87.3836V84.7513H263.313V90.9087L261.213 90.9096ZM269.734 90.9096H265.006V84.7523H266.614V89.5533H269.734V90.9096ZM271.112 90.9096V84.7523H272.721V90.9096H271.112ZM278.21 90.9096L275.966 86.8397C276.02 87.4649 276.02 88.0088 276.02 88.3656V90.9087H274.411V84.7513H276.413L278.755 88.9996C278.71 88.3744 278.701 87.7413 278.701 87.3836V84.7513H280.31V90.9087L278.21 90.9096ZM286.73 90.9096H282.002V84.7523H286.64V86.0018H283.61V87.1974H286.462V88.4469H283.61V89.6601H286.73V90.9096ZM296.002 87.7511C296.002 89.6788 294.822 90.7136 293.392 90.8744C293.079 90.9096 292.936 90.9096 292.606 90.9096H290.272V84.7523H292.606C292.936 84.7523 293.079 84.7523 293.392 84.7876C294.822 84.9483 296.002 85.8234 296.002 87.7511ZM294.321 87.7776C294.321 86.68 293.767 86.091 292.963 86.0194C292.758 86.0018 292.614 86.0018 292.382 86.0018H291.881V89.6611H292.382C292.614 89.6611 292.758 89.6611 292.963 89.6435C293.767 89.5719 294.321 88.8752 294.321 87.7776ZM303.538 87.8315C303.538 89.8032 302.305 91.0351 300.383 91.0351C298.461 91.0351 297.227 89.8032 297.227 87.8315C297.227 85.8499 298.461 84.6278 300.383 84.6278C302.305 84.6278 303.538 85.8499 303.538 87.8315ZM301.894 87.8315C301.894 86.5192 301.313 85.8058 300.384 85.8058C299.454 85.8058 298.873 86.5192 298.873 87.8315C298.873 89.1339 299.454 89.8571 300.384 89.8571C301.313 89.8571 301.894 89.1339 301.894 87.8315ZM310.602 86.778L310.611 86.8671H309.002L308.984 86.778C308.85 86.1174 308.448 85.8058 307.795 85.8058C307.027 85.8058 306.446 86.4487 306.446 87.7776C306.446 89.3309 307.09 89.8571 307.804 89.8571C308.431 89.8571 308.832 89.473 308.967 88.7948L308.984 88.7056H310.593L310.584 88.7948C310.432 90.2766 309.297 91.0351 307.75 91.0351C306.096 91.0351 304.765 89.9639 304.765 87.8756C304.765 85.7333 306.142 84.6269 307.813 84.6269C309.574 84.6278 310.477 85.5647 310.602 86.778ZM315.073 86.0018V90.9106H313.464V86.0018H311.462V84.7523H317.075V86.0018H315.073ZM324.076 87.8315C324.076 89.8032 322.842 91.0351 320.92 91.0351C318.998 91.0351 317.764 89.8032 317.764 87.8315C317.764 85.8499 318.998 84.6278 320.92 84.6278C322.842 84.6278 324.076 85.8499 324.076 87.8315ZM322.431 87.8315C322.431 86.5192 321.85 85.8058 320.92 85.8058C319.991 85.8058 319.41 86.5192 319.41 87.8315C319.41 89.1339 319.991 89.8571 320.92 89.8571C321.85 89.8571 322.431 89.1339 322.431 87.8315ZM330.809 90.9096H329.056C328.913 90.4726 328.824 90.1158 328.771 89.6778C328.69 88.9996 328.422 88.6066 328.011 88.5802C327.832 88.5714 327.68 88.5714 327.502 88.5714H327.144V90.9096H325.536V84.7523H327.985C328.369 84.7523 328.619 84.7611 328.949 84.7964C329.844 84.9032 330.621 85.3403 330.621 86.4301C330.621 87.2062 330.201 87.7237 329.378 87.9647C330.022 88.197 330.254 88.6703 330.343 89.4102C330.424 90.107 330.567 90.5441 330.809 90.9096ZM327.724 87.412C327.894 87.412 328.038 87.412 328.153 87.4032C328.565 87.3679 328.94 87.2248 328.94 86.7074C328.94 86.19 328.609 86.0469 328.198 86.0116C328.082 86.0028 327.938 86.0028 327.769 86.0028H327.143V87.413L327.724 87.412Z" fill="#B44339"/>
<path d="M195.631 104.675V98.0215H195.513C192.328 98.0215 189.737 95.4353 189.737 92.2562V88.881C189.737 85.7019 192.327 83.1157 195.513 83.1157H219.504C222.689 83.1157 225.279 85.7019 225.279 88.881V92.2562C225.279 95.4353 222.688 98.0215 219.504 98.0215H202.955L195.631 104.675ZM195.513 83.7988C192.706 83.7988 190.423 86.0782 190.423 88.8801V92.2552C190.423 95.057 192.706 97.3365 195.513 97.3365H196.317V103.126L202.689 97.3365H219.503C222.31 97.3365 224.593 95.057 224.593 92.2552V88.8801C224.593 86.0782 222.31 83.7988 219.503 83.7988H195.513Z" fill="#A0C5FF"/>
<path d="M205.666 90.8018C205.732 91.8181 206.609 92.5884 207.627 92.5227C208.645 92.458 209.417 91.5809 209.351 90.5657C209.285 89.5494 208.408 88.7791 207.391 88.8448C206.373 88.9095 205.6 89.7856 205.666 90.8018Z" fill="#A0C5FF"/>
<path d="M212.797 90.6842C212.797 91.7025 213.624 92.5276 214.644 92.5276C215.664 92.5276 216.49 91.7025 216.49 90.6842C216.49 89.666 215.664 88.8409 214.644 88.8409C213.624 88.8409 212.797 89.666 212.797 90.6842Z" fill="#A0C5FF"/>
<path d="M198.531 90.802C198.596 91.8182 199.474 92.5885 200.491 92.5228C201.509 92.4582 202.281 91.5811 202.216 90.5658C202.15 89.5495 201.273 88.7792 200.255 88.8449C199.238 88.9096 198.465 89.7857 198.531 90.802Z" fill="#A0C5FF"/>
<path opacity="0.2" d="M79.542 120.21V124.308C79.542 124.308 82.8695 125.278 86.36 122.627V118.113L79.542 120.21Z" fill="#000141"/>
<path d="M76.4677 122.317C72.2734 122.317 68.0791 120.723 64.886 117.534C58.5009 111.158 58.5009 100.783 64.886 94.4082C71.2712 88.0314 81.6642 88.0314 88.0493 94.4082C88.866 95.2236 88.866 96.5437 88.0493 97.359C87.2327 98.1744 85.9095 98.1744 85.0938 97.359C82.7901 95.059 79.7256 93.7918 76.4677 93.7918C73.2098 93.7918 70.1453 95.059 67.8416 97.359C63.0858 102.108 63.0858 109.834 67.8416 114.583C70.1453 116.884 73.2098 118.151 76.4677 118.151C79.7256 118.151 82.7901 116.884 85.0938 114.583C88.8277 110.855 89.7396 105.189 87.3632 100.485C86.843 99.4562 87.2572 98.2008 88.2869 97.6814C89.3185 97.1562 90.574 97.5746 91.0952 98.6036C94.2883 104.921 93.0642 112.528 88.0503 117.534C84.8563 120.722 80.661 122.317 76.4677 122.317Z" fill="#FDD77B"/>
<path d="M85.9369 96.5162C91.1668 101.738 91.1668 110.204 85.9369 115.425C80.7071 120.647 72.2272 120.647 66.9973 115.425C61.7675 110.204 61.7675 101.738 66.9973 96.5162C72.2272 91.2938 80.7061 91.2938 85.9369 96.5162Z" fill="white"/>
<path opacity="0.54" d="M80.8504 104.468V111.107C80.8504 112.216 79.9542 113.112 78.849 113.112H74.2414C73.1371 113.112 72.241 112.216 72.241 111.107V104.468C72.241 104.396 72.2469 104.332 72.2527 104.266C72.2881 103.887 72.4373 103.525 72.6748 103.229L75.0139 100.265H78.0784L80.4175 103.229C80.6551 103.525 80.8033 103.888 80.8396 104.266C80.8445 104.332 80.8504 104.397 80.8504 104.468Z" fill="#A0C5FF"/>
<path d="M80.8504 104.468V110.266H72.241L72.2527 104.266H80.8386C80.8445 104.332 80.8504 104.397 80.8504 104.468Z" fill="#A02E23"/>
<path d="M78.5674 98.0666V99.6111C78.5674 99.9766 78.2729 100.272 77.9058 100.272H75.1731C74.8069 100.272 74.5115 99.9766 74.5115 99.6111V98.0391C74.5282 97.6844 74.8177 97.4061 75.1731 97.4061H77.9058C78.2729 97.4061 78.5674 97.7011 78.5674 98.0666Z" fill="#A0C5FF"/>
<path d="M77.2285 98.0391H74.5125V98.1754H77.2285V98.0391Z" fill="white"/>
<path d="M76.721 98.4645H74.5125V98.6007H76.721V98.4645Z" fill="white"/>
<path d="M77.2285 98.9231H74.5125V99.0593H77.2285V98.9231Z" fill="white"/>
<path d="M76.721 99.3484H74.5125V99.4905H76.721V99.3484Z" fill="white"/>
<path d="M79.3162 104.266V110.266H78.7901V104.468C78.7901 104.396 78.7862 104.332 78.7822 104.266H79.3162Z" fill="white"/>
<path opacity="0.2" d="M357.725 169.368V173.904C357.725 173.904 355.61 175.209 350.974 173.904V168.247L357.725 169.368Z" fill="#000141"/>
<path d="M354.113 171.671C349.794 171.671 345.475 170.03 342.188 166.747C335.613 160.182 335.613 149.499 342.188 142.935C348.763 136.369 359.464 136.369 366.038 142.935C366.879 143.774 366.879 145.134 366.038 145.974C365.198 146.814 363.836 146.814 362.995 145.974C360.622 143.605 357.467 142.302 354.113 142.302C350.758 142.302 347.603 143.606 345.232 145.974C340.336 150.863 340.336 158.819 345.232 163.709C347.604 166.078 350.759 167.381 354.113 167.381C357.467 167.381 360.623 166.077 362.995 163.709C366.838 159.87 367.779 154.036 365.331 149.192C364.795 148.133 365.221 146.84 366.282 146.306C367.345 145.765 368.638 146.196 369.174 147.256C372.461 153.76 371.201 161.593 366.038 166.748C362.75 170.029 358.431 171.671 354.113 171.671Z" fill="#FDD77B"/>
<path d="M363.863 145.106C369.248 150.482 369.248 159.199 363.863 164.575C358.478 169.952 349.747 169.952 344.362 164.575C338.977 159.199 338.977 150.482 344.362 145.106C349.747 139.729 358.478 139.729 363.863 145.106Z" fill="url(#paint0_linear_136_181)"/>
<path d="M359.099 149.104L356.791 156.795C356.421 158.03 355.117 158.74 353.879 158.37C352.642 157.999 351.945 156.691 352.315 155.455L354.623 147.765C354.994 146.531 356.297 145.82 357.534 146.19C358.772 146.56 359.47 147.869 359.099 149.104Z" fill="#FDD77B"/>
<path d="M359.099 149.104L357.964 152.885L353.488 151.546L354.623 147.765C354.994 146.531 356.297 145.82 357.534 146.19C358.772 146.56 359.47 147.869 359.099 149.104Z" fill="#A02E23"/>
<path opacity="0.44" d="M353.488 151.546L357.8 153.442L357.964 152.885L353.488 151.546Z" fill="#BAF1EB"/>
<path opacity="0.49" d="M357.402 147C357.795 147.235 358.137 147.58 358.346 148.02C358.597 148.464 358.448 149.042 358.332 149.446C358.117 150.333 357.878 151.213 357.625 152.088C357.12 153.84 356.576 155.58 355.949 157.295L355.941 157.319L355.937 157.325C355.725 157.663 355.445 157.934 355.099 158.115C354.755 158.297 354.337 158.322 354 158.175C354.363 158.24 354.723 158.155 355.001 157.952C355.274 157.748 355.494 157.46 355.647 157.171L355.634 157.201C356.057 155.424 356.56 153.672 357.104 151.932C357.375 151.062 357.66 150.196 357.969 149.337C358.14 148.891 358.264 148.526 358.129 148.101C358.011 147.689 357.73 147.316 357.402 147Z" fill="white"/>
<path d="M353.691 152.892V160.92C353.691 162.21 352.647 163.263 351.355 163.263C350.063 163.263 349.018 162.21 349.018 160.92V152.892C349.018 151.602 350.062 150.549 351.355 150.549C352.647 150.549 353.691 151.602 353.691 152.892Z" fill="#FDD77B"/>
<path d="M353.691 152.892V156.838H349.019V152.892C349.019 151.602 350.063 150.549 351.356 150.549C352.647 150.549 353.691 151.602 353.691 152.892Z" fill="#A02E23"/>
<path opacity="0.44" d="M349.019 156.838L353.694 157.419L353.691 156.838H349.019Z" fill="#BAF1EB"/>
<path opacity="0.49" d="M351.683 150.972C352.128 151.085 352.554 151.316 352.88 151.678C353.247 152.031 353.27 152.628 353.276 153.048C353.324 153.96 353.35 154.871 353.358 155.783C353.379 157.605 353.357 159.427 353.251 161.25L353.249 161.277L353.247 161.282C353.141 161.668 352.952 162.007 352.672 162.279C352.395 162.553 352.002 162.696 351.637 162.652C352.004 162.609 352.325 162.425 352.532 162.151C352.735 161.876 352.863 161.537 352.926 161.218L352.923 161.25C352.817 159.427 352.794 157.605 352.815 155.783C352.824 154.871 352.849 153.96 352.897 153.048C352.934 152.572 352.947 152.187 352.696 151.819C352.463 151.457 352.087 151.18 351.683 150.972Z" fill="white"/>
<path d="M357.596 161.906C357.201 162.53 356.466 162.799 355.791 162.639C355.711 162.624 355.637 162.603 355.558 162.572C355.465 162.539 355.366 162.486 355.277 162.431C355.175 162.367 355.088 162.295 355.006 162.216C354.945 162.16 354.893 162.101 354.846 162.036C354.425 161.498 354.36 160.735 354.75 160.116C355.137 159.504 355.86 159.226 356.526 159.372C356.606 159.387 356.68 159.408 356.759 159.439C356.865 159.48 356.968 159.527 357.069 159.591C357.157 159.647 357.248 159.712 357.318 159.783C357.38 159.84 357.431 159.899 357.478 159.963C357.916 160.503 357.99 161.281 357.596 161.906Z" fill="#FDD77B"/>
<path d="M357.479 159.963C357.479 159.963 355.637 162.604 355.558 162.573C355.465 162.54 355.366 162.487 355.277 162.432C355.175 162.368 355.088 162.296 355.006 162.217C354.945 162.161 356.526 159.373 356.526 159.373C356.606 159.388 356.68 159.409 356.759 159.44C356.865 159.481 356.968 159.528 357.069 159.592C357.157 159.648 357.249 159.713 357.318 159.784C357.381 159.84 357.432 159.899 357.479 159.963Z" fill="#A0C5FF"/>
<path opacity="0.49" d="M357.319 159.784L355.558 162.573C355.465 162.54 355.366 162.487 355.277 162.432C355.175 162.368 355.088 162.296 355.006 162.217L356.759 159.44C356.865 159.481 356.968 159.528 357.069 159.592C357.158 159.647 357.249 159.713 357.319 159.784Z" fill="white"/>
<path d="M361.652 158.326C361.799 159.245 361.327 160.11 360.552 160.519C360.465 160.572 360.377 160.614 360.278 160.648C360.161 160.695 360.023 160.727 359.893 160.747C359.744 160.771 359.601 160.775 359.458 160.769C359.352 160.766 359.256 160.753 359.157 160.732C358.311 160.571 357.613 159.901 357.468 158.991C357.325 158.091 357.777 157.229 358.531 156.814C358.619 156.761 358.707 156.719 358.806 156.684C358.941 156.634 359.078 156.593 359.226 156.57C359.357 156.55 359.498 156.537 359.623 156.545C359.729 156.548 359.825 156.561 359.924 156.583C360.787 156.731 361.506 157.407 361.652 158.326Z" fill="#FDD77B"/>
<path d="M359.924 156.583C359.924 156.583 360.377 160.614 360.277 160.648C360.161 160.695 360.023 160.727 359.893 160.747C359.743 160.771 359.601 160.775 359.458 160.769C359.352 160.766 358.531 156.814 358.531 156.814C358.619 156.761 358.707 156.719 358.806 156.684C358.941 156.634 359.078 156.593 359.226 156.57C359.357 156.55 359.498 156.537 359.623 156.545C359.729 156.548 359.826 156.561 359.924 156.583Z" fill="#A0C5FF"/>
<path opacity="0.49" d="M359.624 156.545L360.279 160.648C360.162 160.695 360.024 160.727 359.894 160.747C359.745 160.771 359.602 160.775 359.459 160.769L358.807 156.684C358.942 156.634 359.079 156.593 359.227 156.57C359.357 156.55 359.498 156.537 359.624 156.545Z" fill="white"/>
<path d="M364.021 114.292C364.33 114.292 364.581 114.043 364.581 113.734C364.581 113.425 364.33 113.175 364.021 113.175C363.712 113.175 363.462 113.425 363.462 113.734C363.462 114.043 363.713 114.292 364.021 114.292ZM364.021 118.575C364.33 118.575 364.581 118.325 364.581 118.016C364.581 117.708 364.33 117.458 364.021 117.458C363.712 117.458 363.462 117.708 363.462 118.016C363.462 118.325 363.713 118.575 364.021 118.575ZM364.021 122.858C364.33 122.858 364.581 122.608 364.581 122.299C364.581 121.99 364.33 121.74 364.021 121.74C363.712 121.74 363.462 121.99 363.462 122.299C363.462 122.608 363.713 122.858 364.021 122.858ZM364.021 127.14C364.33 127.14 364.581 126.89 364.581 126.582C364.581 126.273 364.33 126.023 364.021 126.023C363.712 126.023 363.462 126.273 363.462 126.582C363.462 126.89 363.713 127.14 364.021 127.14ZM366.436 112.053C366.745 112.053 366.995 111.803 366.995 111.495C366.995 111.186 366.745 110.936 366.436 110.936C366.127 110.936 365.876 111.186 365.876 111.495C365.876 111.803 366.128 112.053 366.436 112.053ZM366.436 116.337C366.745 116.337 366.995 116.087 366.995 115.778C366.995 115.469 366.745 115.22 366.436 115.22C366.127 115.22 365.876 115.469 365.876 115.778C365.876 116.086 366.128 116.337 366.436 116.337ZM366.436 120.619C366.745 120.619 366.995 120.369 366.995 120.061C366.995 119.752 366.745 119.502 366.436 119.502C366.127 119.502 365.876 119.752 365.876 120.061C365.876 120.369 366.128 120.619 366.436 120.619ZM366.436 124.902C366.745 124.902 366.995 124.652 366.995 124.343C366.995 124.035 366.745 123.785 366.436 123.785C366.127 123.785 365.876 124.035 365.876 124.343C365.876 124.652 366.128 124.902 366.436 124.902Z" fill="#A0C5FF"/>
<path d="M62.8061 218.829C63.1948 218.829 63.5089 218.514 63.5089 218.127C63.5089 217.739 63.1938 217.426 62.8061 217.426C62.4184 217.426 62.1033 217.74 62.1033 218.127C62.1033 218.515 62.4174 218.829 62.8061 218.829ZM62.8061 224.21C63.1948 224.21 63.5089 223.896 63.5089 223.509C63.5089 223.121 63.1938 222.807 62.8061 222.807C62.4184 222.807 62.1033 223.121 62.1033 223.509C62.1033 223.897 62.4174 224.21 62.8061 224.21ZM62.8061 229.591C63.1948 229.591 63.5089 229.277 63.5089 228.89C63.5089 228.502 63.1938 228.188 62.8061 228.188C62.4184 228.188 62.1033 228.503 62.1033 228.89C62.1033 229.277 62.4174 229.591 62.8061 229.591ZM62.8061 234.973C63.1948 234.973 63.5089 234.658 63.5089 234.271C63.5089 233.883 63.1938 233.569 62.8061 233.569C62.4184 233.569 62.1033 233.884 62.1033 234.271C62.1033 234.658 62.4174 234.973 62.8061 234.973ZM65.8401 216.016C66.2288 216.016 66.543 215.702 66.543 215.315C66.543 214.928 66.2279 214.613 65.8401 214.613C65.4524 214.613 65.1373 214.928 65.1373 215.315C65.1373 215.702 65.4514 216.016 65.8401 216.016ZM65.8401 221.398C66.2288 221.398 66.543 221.083 66.543 220.696C66.543 220.309 66.2279 219.994 65.8401 219.994C65.4524 219.994 65.1373 220.309 65.1373 220.696C65.1373 221.083 65.4514 221.398 65.8401 221.398ZM65.8401 226.779C66.2288 226.779 66.543 226.464 66.543 226.077C66.543 225.689 66.2279 225.375 65.8401 225.375C65.4524 225.375 65.1373 225.69 65.1373 226.077C65.1364 226.464 65.4514 226.779 65.8401 226.779ZM65.8401 232.16C66.2288 232.16 66.543 231.845 66.543 231.458C66.543 231.071 66.2279 230.757 65.8401 230.757C65.4524 230.757 65.1373 231.071 65.1373 231.458C65.1364 231.845 65.4514 232.16 65.8401 232.16Z" fill="#A0C5FF"/>
<defs>
<linearGradient id="paint0_linear_136_181" x1="340.323" y1="154.841" x2="367.902" y2="154.841" gradientUnits="userSpaceOnUse">
<stop stop-color="#D1F4FF"/>
<stop offset="0.418" stop-color="#FBFEFE"/>
<stop offset="1" stop-color="#D1F4FF"/>
</linearGradient>
</defs>
</svg>
