<svg width="27" height="18" viewBox="0 0 27 18" fill="none" xmlns="http://www.w3.org/2000/svg">
<path d="M13.4999 17.0942C12.6819 17.0942 11.8907 16.9766 11.1265 16.7413C10.3622 16.506 9.65721 16.1643 9.01138 15.7162C8.06415 15.649 7.0954 15.4361 6.10513 15.0776C5.11485 14.7191 4.21068 14.1253 3.39263 13.2963C2.57457 12.4673 1.90183 11.3806 1.3744 10.0362C0.846967 8.69178 0.583252 7.01129 0.583252 4.99471V4.32252C0.583252 3.38145 0.895405 2.58602 1.51971 1.93623C2.14402 1.28644 2.90825 0.961548 3.81242 0.961548C4.652 0.961548 5.37856 1.26404 5.99211 1.86901C6.60565 2.47398 6.94471 3.20219 7.00929 4.05364C7.61207 3.87439 8.15027 3.65032 8.62388 3.38145C9.09749 3.11257 9.58186 2.85489 10.077 2.60842C10.5721 2.33955 11.0888 2.10988 11.627 1.91942C12.1652 1.72897 12.7895 1.63374 13.4999 1.63374C14.2319 1.63374 14.8616 1.72897 15.389 1.91942C15.9164 2.10988 16.4277 2.33955 16.9228 2.60842C17.3964 2.85489 17.8754 3.11257 18.3598 3.38145C18.8442 3.65032 19.3878 3.87439 19.9905 4.05364C20.0551 3.17979 20.3942 2.44598 21.0077 1.8522C21.6213 1.25843 22.3478 0.961548 23.1874 0.961548C24.0916 0.961548 24.8558 1.28644 25.4801 1.93623C26.1044 2.58602 26.4166 3.38145 26.4166 4.32252V4.99471C26.4166 7.01129 26.1529 8.69178 25.6254 10.0362C25.098 11.3806 24.4253 12.4673 23.6072 13.2963C22.7892 14.1253 21.885 14.7191 20.8947 15.0776C19.9044 15.4361 18.9357 15.649 17.9885 15.7162C17.3426 16.1643 16.6376 16.506 15.8734 16.7413C15.1091 16.9766 14.318 17.0942 13.4999 17.0942ZM6.39575 13.0274C5.98672 12.3552 5.66919 11.6214 5.44315 10.826C5.21711 10.0306 5.10408 9.20713 5.10408 8.35568V4.32252C5.10408 3.94161 4.9803 3.62232 4.73273 3.36464C4.48516 3.10697 4.17839 2.97813 3.81242 2.97813C3.44645 2.97813 3.13968 3.10697 2.89211 3.36464C2.64454 3.62232 2.52075 3.94161 2.52075 4.32252V4.99471C2.52075 7.45942 2.91902 9.29675 3.71554 10.5067C4.51207 11.7167 5.40547 12.5569 6.39575 13.0274ZM13.4999 15.0776C15.2867 15.0776 16.8098 14.4222 18.0692 13.1115C19.3286 11.8007 19.9583 10.2154 19.9583 8.35568V6.13744C19.2263 5.95819 18.5859 5.74533 18.0369 5.49886C17.4879 5.25239 16.9874 4.98351 16.5353 4.69222C15.9326 4.31131 15.3997 4.04244 14.9369 3.88559C14.4741 3.72875 13.9951 3.65032 13.4999 3.65032C13.0048 3.65032 12.5258 3.72875 12.0629 3.88559C11.6001 4.04244 11.0673 4.31131 10.4645 4.69222C10.0124 4.9611 9.5119 5.22998 8.96294 5.49886C8.41398 5.76773 7.77353 5.9806 7.04159 6.13744V8.35568C7.04159 10.2154 7.67127 11.8007 8.93065 13.1115C10.19 14.4222 11.7131 15.0776 13.4999 15.0776ZM9.62492 8.01958C10.0985 7.88515 10.5076 7.7227 10.852 7.53224C11.1964 7.34179 11.5194 7.15694 11.8208 6.97768C12.1221 6.79843 12.3966 6.64719 12.6442 6.52395C12.8918 6.40072 13.177 6.3391 13.4999 6.3391C13.8228 6.3391 14.1081 6.40072 14.3556 6.52395C14.6032 6.64719 14.8777 6.79843 15.1791 6.97768C15.4805 7.15694 15.798 7.34179 16.1317 7.53224C16.4654 7.7227 16.8798 7.88515 17.3749 8.01958V6.60798C17.052 6.49594 16.7721 6.37271 16.5353 6.23827L15.8249 5.83495C15.4805 5.61089 15.1306 5.41483 14.7754 5.24678C14.4202 5.07874 13.9951 4.99471 13.4999 4.99471C13.0048 4.99471 12.5796 5.07874 12.2244 5.24678C11.8692 5.41483 11.5086 5.61089 11.1426 5.83495L10.4322 6.23827C10.1954 6.37271 9.92631 6.49594 9.62492 6.60798V8.01958ZM20.6041 13.0274C21.5944 12.5569 22.4878 11.7167 23.2843 10.5067C24.0808 9.29675 24.4791 7.45942 24.4791 4.99471V4.32252C24.4791 3.94161 24.3553 3.62232 24.1077 3.36464C23.8602 3.10697 23.5534 2.97813 23.1874 2.97813C22.8214 2.97813 22.5147 3.10697 22.2671 3.36464C22.0195 3.62232 21.8958 3.94161 21.8958 4.32252V8.35568C21.8958 9.20713 21.7881 10.0306 21.5728 10.826C21.3576 11.6214 21.0346 12.3552 20.6041 13.0274Z" fill="#1C1B1F"/>
</svg>
