<svg width="64" height="64" viewBox="0 0 64 64" fill="none" xmlns="http://www.w3.org/2000/svg">
<path d="M17.5293 14.4033L10.5499 6.96586L6.73684 10.7789L13.7297 18.2164L17.5293 14.4033ZM10.1053 29.6421H0V35.0315H10.1053V29.6421ZM34.3579 0H28.9684V10.7789H34.3579V0ZM57.0341 10.7789L53.2211 6.96586L45.7836 14.4033L49.5966 18.2164L57.0341 10.7789ZM45.7971 50.2703L53.2211 57.0341L57.0341 53.2211L49.6101 46.4572L45.7971 50.2703ZM53.2211 29.6421V35.0315H64V29.6421H53.2211ZM31.6632 16.1684C22.7301 16.1684 15.4947 23.4038 15.4947 32.3368C15.4947 41.2699 22.7301 48.5052 31.6632 48.5052C40.5962 48.5052 47.8316 41.2699 47.8316 32.3368C47.8316 23.4038 40.5962 16.1684 31.6632 16.1684ZM28.9684 64H34.3579V53.8947H28.9684V64ZM6.73684 53.2211L10.5499 57.0341L17.5427 50.2703L13.7297 46.4572L6.73684 53.2211Z" fill="#202B37"/>
</svg>
